<?xml version="1.0" encoding="utf-8"?>
<!-- Generator: Adobe Illustrator 22.1.0, SVG Export Plug-In . SVG Version: 6.00 Build 0)  -->
<svg version="1.1" xmlns="http://www.w3.org/2000/svg" xmlns:xlink="http://www.w3.org/1999/xlink" x="0px" y="0px"
	 viewBox="0 0 800 500" style="enable-background:new 0 0 800 500;" xml:space="preserve">
<style type="text/css">
	.st0{fill:#CFE548;}
	.st1{opacity:0.35;fill:#999999;}
	.st2{opacity:0.35;}
	.st3{fill:#999999;}
</style>
<g id="Layer_3">
	<path class="st0" d="M208.9,140.9c-30.1-38.7-90.4-40.2-123.8-5.3c-16.8,17.6-28.3,45.2-19.6,69.3c8.9,24.7,36.6,37.3,61,41.4
		c14.5,2.4,28.5,2.4,43,0.1c6.3-1,12.6-2.6,18.6-4.9c3.7-1.4,7.3-2.9,10.9-4.5c1.5-0.7,2.9-1.3,4.3-2.1c2.6-1.4-2.8,1-3.7,0.9
		c-3.7-1-7.5-2-11.2-3c-0.8-0.6-1.5-1.2-2.3-1.8c-1.9-3.3-3.8-6.5-5.7-9.8c-0.4-2.4-0.1,5.3-0.1,5.1c0.1,2.9,0.2,5.9,0.3,8.8
		c0.2,5.9,0.4,11.7,0.6,17.6c0.4,12,9.9,22.2,22.2,22.2c11.7,0,22.6-10.2,22.2-22.2c-0.4-13.2,1-28.1-2-41
		c-3.9-17.3-21.8-24-37.4-17.5c-5.2,2.2-7.4,3.7-11,5c-4.9,1.8-10,3-15.1,4.1c-4.5,0.9-2.3,0.4-1.3,0.2c-1.2,0.1-2.4,0.2-3.6,0.3
		c-2.4,0.2-4.8,0.3-7.2,0.2s-4.8-0.1-7.2-0.3c-1.2-0.1-2.4-0.2-3.6-0.3c2.4,0.3-0.4-0.1-1.3-0.3c-10.6-2.3-16.4-3.9-24.9-9.1
		c-0.4-0.2-4.1-3-2.5-1.6c1.4,1.1-1.2-1.4-1.2-1.4c1.4,2.7-1.6-3,0.2,0.1c-0.1-0.2-0.7-3.6-0.5-1.4c0.2,2.3,0-1.5,0-1.5
		c0-1.1,0-2.3,0.1-3.4c0.3-3.6-0.7,2.6,0.3-0.9c0.3-1.1,1.7-6,1.3-4.9c-0.4,1.1,1.6-3.2,2.2-4.2c0.5-1,3.1-5,2.4-4.1
		c-1.2,1.7,0.9-1.1,1-1.2c1-1.1,1.9-2.2,3-3.2c0.8-0.8,1.6-1.5,2.4-2.2c0.4-0.3,3.8-3.1,1.9-1.7c-0.9,0.7,3.1-2,4.1-2.5
		c0.9-0.6,5.3-2.8,4.1-2.3c-2,0.9,1.3-0.5,1.4-0.5c1.4-0.4,2.7-0.9,4.1-1.3c1.1-0.3,2.1-0.5,3.2-0.7c3.5-0.9-3,0.2,0.6-0.2
		c2.5-0.2,5.1-0.3,7.6-0.2c1.1,0,2.2,0.1,3.2,0.2c3.6,0.3-3-0.7,0.5,0.2c2.5,0.6,4.9,1.3,7.3,2c0.5,0.2,3.9,1.5,0.8,0.1
		c1.3,0.6,2.6,1.2,3.9,1.9c2.2,1.2,4.4,2.5,6.5,4c2.1,1.5,0.2,0.1-0.2-0.1c1.1,0.9,2.2,1.9,3.2,2.9c2.1,2,3.9,4.2,5.7,6.5
		c7.4,9.5,23.6,7.7,31.4,0C218.2,163,216.3,150.4,208.9,140.9L208.9,140.9z"/>
	<path class="st0" d="M249.9,153.4c9.9-2.7,17.3-2.9,27-4.1c0.7,0,1.5,0,2.2,0c-2.1-0.2-3.8-1.2-5-3.2c-4.2-3.5-3.3-2.8-4.8-6.9
		c-0.7-1.9,1.2-2.1-0.6-0.9c-1.4,1-2.5,4.1-3.6,5.6c-4.8,7.3-10.7,15.6-15.5,21.9c-8,10.5-15.6,18.8-13.7,32.9c3,22,21.6,37,42,42.8
		c9.8,2.8,20.3,3.8,30.5,4.9c10.7,1.2,21.9,0.9,32-2.9c11.2-4.1,18.9-15,15.5-27.3c-3-10.8-16-19.7-27.3-15.5
		c-8.2,3-15.7,2-25.5,0.7c2.5,0.3-2.6-0.4-3.2-0.5c-2.1-0.4-4.3-0.7-6.4-1.2c-3.8-0.9-6.7-1.7-8.9-2.9c0,0-5.7-3.8-2.7-1.8
		c-0.5-0.5-1-1-1.6-1.6c0.9,1.4,0.9,1.4,0.1,0.1c-0.7-1.4-0.8-1.2-0.2,0.4c-0.2-0.7-0.4-1.4-0.6-2.1c-1.8,8.9-3.5,11.3-0.3,7.3
		c6.5-8.2,12.8-16.6,18.8-25.2c5.8-8.4,12.2-17.1,14.6-27.2c2.7-11.6-0.3-24.3-8.9-32.8c-16.1-15.8-46.3-8.8-65.5-3.6
		c-11.6,3.1-18.6,15.8-15.5,27.3C225.8,149.6,238.3,156.5,249.9,153.4L249.9,153.4z"/>
	<path class="st0" d="M306.4,186.3c2.4,1,2.7,1,0.7,0.2c1.3,0.6,2.6,1.2,3.9,1.9c1.3,0.7,2.5,1.4,3.7,2.2c-1.7-1.3-1.6-1.1,0.3,0.6
		c-1.7-2.9-1.1-3.4-1.8-0.3c0.1-1.6-0.1-0.9-0.6,1.9c-0.4,1.7-0.9,3.4-1.4,5.1c-5.6,19.3,16,33.8,32.6,25c8.1-4.2,15.8-9,23.2-14.5
		c4-3,7.8-6.1,11.7-9.2c1.3-1,0-0.3,2.4-1.7c0.5-0.3,5.3-3,3.7-2.2c-0.8,0.4-0.7,0.4,0.6,0c1.6-0.4,1.4-0.3-0.4,0.1
		c-1-0.3-2-0.3-3-0.7c-2.1-1-3.4-2.4-4.1-4.4c-0.4-1.2-0.4-1.1-0.1,0.2c0.4,1.6,0.3,1.3-0.1-0.8c0,0.7,0,1.4,0,2.1
		c0.1-0.6,0.2-1.2,0.3-1.8c-0.2,1.3-0.5,2.5-0.7,3.8c-0.4,2.1-1,4.2-1.4,6.2c-1.1,5.2-1.9,10.6-1.9,16c-0.1,12,10.3,22.2,22.2,22.2
		c12.1,0,22.1-10.2,22.2-22.2c0.2-2.8,0.1-3.4-0.1-1.7c0.3-1.7,0.7-3.3,1.1-5c0.6-2.5,1.2-5,1.6-7.5c1.3-7.5,1.8-14.6,0.1-22.1
		c-3.6-15-15.5-25.9-30.7-28c-15.4-2.1-28.1,4.7-39.8,14c-8.9,7.1-18.2,13.5-28.7,19c10.9,8.3,21.7,16.7,32.6,25
		c4.3-14.7,5.8-30.3-2.9-43.8c-7.7-11.9-20.2-17.6-33-22.5c-11.2-4.3-24.3,4.8-27.3,15.5C287.5,171.6,295.2,182,306.4,186.3
		L306.4,186.3z"/>
	<path class="st0" d="M450.7,173.5c22,4.8,45.2,8.9,67.1,1.3c14.4-5,19.6-19.1,13.3-32.6c-12-25.6-43.8-33.3-69.6-33.6
		c-29.7-0.5-60.3,15.1-66.1,46.6c-2.8,15.3-1,32.4,6.4,46.3c7.4,13.9,20.4,21.9,34.6,27.6c27.6,11.1,56.9,14.9,84.8,3
		c11-4.7,13.4-20.9,8-30.3c-6.7-11.4-19.3-12.6-30.3-8c2.1-0.9-4.2,1-4.1,0.9c-0.8,0.2-1.6,0.3-2.4,0.5c1.4-0.1,1.4-0.1-0.2,0
		c-4.5,0.4-9.2,0.3-13.7-0.2c2.7,0.3-2.1-0.4-2.9-0.5c-2.1-0.4-4.2-0.9-6.2-1.4c-4.5-1.1-9-2.5-13.4-4c-1.9-0.6-3.8-1.3-5.6-2
		c2.9,1.1-3.3-1.6-3.3-1.6c-3.7-2-4-1.5-6.4-4.9c1.8,2.6-1.3-3.6-0.2-0.9c-0.8-1.9-1.2-4.1-1.6-6.1c-0.3-1.6-0.3-1.6-0.2-0.2
		c-0.1-0.8-0.1-1.7-0.2-2.5c-0.1-2.4-0.2-5,0.2-7.4c-0.5,2.8,0.7-1.7,1-2.5c0.4-1.4,0.5-1.5,0.2-0.3c0.4-0.7,0.8-1.4,1.3-2.1
		c-2.8,2.8,2.2-1.9,2.2-1.9c-2.3,2,0.6-0.2,1.7-0.8c1.2-0.7,4.5-1.8,1.6-0.9c2.2-0.7,4.6-1.5,6.9-1.8c2.2-0.3,7.4-0.3,10.8-0.2
		c2.8,0.1,5.6,0.4,8.4,0.7c-3.3-0.4-0.4,0,1.3,0.3c3.8,0.7,7.5,1.7,11.2,3.1c-2.9-1,0,0,1.3,0.7c1.5,0.8,3,1.6,4.3,2.7
		c-3.5-2.7,1,1.4,1.3,1.9c-2.3-3.1,0.2,1.2,0.7,2.3c4.4-10.9,8.8-21.7,13.3-32.6c-8.3,2.9-12.6,3.1-21.4,2.5
		c-3.7-0.3-4.8-0.4-8.8-1.1c-4.4-0.8-8.8-1.7-13.2-2.7c-11.7-2.5-24,3.5-27.3,15.5C432.2,157.3,439,171,450.7,173.5L450.7,173.5z"/>
	<path class="st0" d="M581.4,193.6c3.1,1.6,6.1,3.2,8.9,5.2c-0.2-0.2,5.1,4.4,5.1,4.5c-0.3,0.2-2.2-8.8-2-8.7
		c-0.2-0.1-0.7,1-1.6,2.3c-2,2.8,1.8-1.7-0.7,0.6c-0.5,0.4-4,3.4-1.4,1.5c-1.2,0.9-2.5,1.6-3.8,2.3c-2.6,1.5-1.4,0-0.8,0.4
		c1.1,0.7,3.8,1,5.1,1.1c-0.8-0.1-2.8-2.2-0.8-0.6c-1.1-1-2.3-1.9-3.3-3c0.1,0.1-3.9-4.2-2.6-2.7c1.5,1.7-2.3-2.1-0.5-0.6
		c0.3,1.1,0.3,1-0.1-0.3c-0.4-1.6-0.5-1.3-0.2,0.7c-1.2-11.9-9.4-22.2-22.2-22.2c-11.1,0-23.3,10.2-22.2,22.2
		c1.7,17.1,10.2,30,23.6,40.5c7.4,5.8,15.2,9.8,25,9.4c8.8-0.4,17.8-3.9,25-8.8c13.3-9,25.7-24.3,25.6-41.1
		c-0.1-18.9-18.5-33.1-33.9-40.9c-10.7-5.4-24-2.8-30.3,8C567.6,173.2,570.6,188.2,581.4,193.6L581.4,193.6z"/>
	<path class="st0" d="M685.9,110.7c-14.1-1.4-29.3-2.1-42.8,3.3c-16.5,6.5-28.2,18.8-33.6,35.9c-4.4,13.9-3.4,29.2-0.4,43.2
		c3.1,14.9,9.4,29.6,9.4,43c0.1,12,10.2,22.2,22.2,22.2c12,0,22.2-10.1,22.2-22.2c-0.1-14.5-3.8-28.2-7.7-42
		c-1.6-5.6-3.2-11.2-4.1-17c0.7,4.4-0.1-1.7-0.1-2.6c-0.1-2.8-0.1-5.7,0.1-8.5c-0.4,4.5,0.6-2.3,0.9-3.3c0.3-1,0.6-2,0.9-2.9
		c-0.9,2.2-0.8,2.1,0.3-0.2c1.4-2.1,1.4-2.3,0.1-0.4c0.9-1,1.9-2,2.9-2.9c-3,2.3,3.6-1.7-0.4,0.1c2.6-1.2,5.7-1.9,8.5-2.3
		c-4.1,0.6,2.3,0,3.1,0c6.1-0.2,12.3,0.4,18.3,1c11.9,1.2,22.2-11,22.2-22.2C708.1,119.9,697.9,111.9,685.9,110.7L685.9,110.7z"/>
	<path class="st0" d="M646.3,220.6c17,5,34.8,7.6,52.6,7.8c12,0.2,22.2-10.3,22.2-22.2c0-12.2-10.2-22-22.2-22.2
		c-14.6-0.2-26.6-2.1-40.8-6.3c-11.5-3.4-24.1,4.1-27.3,15.5C627.6,205.1,634.8,217.2,646.3,220.6L646.3,220.6z"/>
	<path class="st0" d="M108.8,355c38-4.5,76.1-7.9,114.3-10.1c12-0.7,22.2-9.7,22.2-22.2c0-11.5-10.2-22.9-22.2-22.2
		c-38.2,2.2-76.3,5.5-114.3,10.1c-11.9,1.4-22.2,9.2-22.2,22.2C86.6,343.7,96.8,356.4,108.8,355L108.8,355z"/>
	<path class="st0" d="M132.4,342.6c8.6,18.6,18.6,36.5,29.8,53.6c6.6,10,19.6,14.2,30.3,8c9.9-5.8,14.6-20.3,8-30.3
		c-11.3-17.1-21.2-35-29.8-53.6c-5-10.9-20.7-13.6-30.3-8C129.2,318.8,127.3,331.7,132.4,342.6L132.4,342.6z"/>
	<path class="st0" d="M257.3,364.5c2-4.1,4.1-8.2,6.1-12.3c0.8-1.6,1.6-3.3,2.4-4.9c0.6-1.2,1.2-2.5,1.8-3.7
		c1.2-2.2,0.7-1.7-1.4,1.4c-3.3,1.9-6.5,3.8-9.8,5.7c0.4-0.1,0.9-0.1,1.3-0.2c-3.9,0-7.9,0-11.8,0c12,2.3,24.1,6.2,35.5,10.4
		c8.4,3.1,20.1,9.3,26.9,15.3c9,7.9,22.5,8.9,31.4,0c8.1-8.1,9-23.4,0-31.4c-17.8-15.6-39-25-61.6-31.7c-11.9-3.5-27-9.8-38.7-3
		c-10.7,6.2-15.2,21.5-20.4,32c-5.3,10.7-2.9,24,8,30.3C236.7,378.2,251.9,375.3,257.3,364.5L257.3,364.5z"/>
	<path class="st0" d="M313.5,334.7c14.2-1.1,28.3-1.3,42.5-0.6c-2-14.5-3.9-29-5.9-43.6c-7.1,2.3-14.3,4.5-21.2,7.1
		c-12.3,4.7-18.7,15.3-17.6,28.4c1.5,17.9,8.5,34.1,18.4,49c6.6,10,19.6,14.2,30.3,8c9.9-5.8,14.6-20.3,8-30.3
		c-3.5-5.3-7.8-12.3-9.7-17.2c-0.4-1.2-1.7-5.6-2.3-8c-0.9-3.8,0.1,2.4-0.3-1.4c-0.1-0.8-0.1-1.7-0.2-2.5c0-2.4-0.1-1.7-0.3,2.2
		c-1.9,3.3-3.8,6.5-5.7,9.8c0.3-0.3,0.6-0.5,1-0.8c-3.3,1.9-6.5,3.8-9.8,5.7c6.9-2.7,14.2-4.8,21.2-7.1c23.9-7.9,19.4-42.3-5.9-43.6
		c-14.2-0.7-28.4-0.5-42.5,0.6c-11.9,1-22.2,9.5-22.2,22.2C291.3,323.8,301.4,335.7,313.5,334.7L313.5,334.7z"/>
	<path class="st0" d="M387.1,283.9c-13,2.8-25.7,6.9-35.9,15.9c-11.3,10-17.3,25.3-14.3,40.3c4.7,23.8,29.6,40.2,51.9,44.9
		c13.5,2.8,26.6,2.7,40.2,0.7c11.9-1.7,25.9-3.7,36.5-9.6c32.6-18.3-2.4-59.4-17.3-77.2c-7.7-9.2-23.4-7.9-31.4,0
		c-9.1,9.1-7.7,22.2,0,31.4c3.7,4.4,6.9,8.7,10.4,13.9c1.7,2.6,3.4,5.3,5,8c0.9,1.6,1.8,3.1,2.7,4.7c2,3.9,1.8,3.1-0.5-2.5
		c1-3.7,2-7.5,3-11.2c-0.3,0.5-0.6,0.9-0.9,1.4c2.7-2.7,5.3-5.3,8-8c-2,1.4-1.8,1.4,0.6,0.1c-1.8,0.5-3.7,1-5.5,1.5
		c-2.8,0.7-5.5,1.4-8.3,2.1c-6,1.4-10.9,2.2-16.7,2.5c-2.8,0.1-5.7,0.1-8.5,0c-0.6,0-6.9-0.9-3.2-0.2c-3-0.5-5.9-1.4-8.9-2.2
		c-3.9-1,0.7,0.8-3.2-1.2c-2-1.1-4-2.2-5.9-3.4c2.5,1.7-2.6-2.4-3.3-3.1c-1-1.2-1.1-1.1-0.1,0.2c-0.8-1.2-1.6-2.4-2.2-3.8
		c0.2-0.7,1,4.7,0.9,4.3c-1,1.8-0.8,1.5,0.5-0.8c-0.9,1.2-0.9,1.2,0.2,0.1c1.1-1,1.1-1.1-0.1-0.1c1.4-0.9,2.8-1.7,4.3-2.4
		c-2.2,1,4.1-1.2,4-1.2c3.2-0.9,6.5-1.6,9.7-2.3c11.7-2.5,18.5-16.2,15.5-27.3C411,287.3,398.8,281.3,387.1,283.9L387.1,283.9z"/>
	<path class="st0" d="M456.4,327c9.7-2.5,19.5-4.7,29.4-6.2c4.2-0.7,6.1-0.9,10.4-1.3c2.6-0.2,5.6-0.7,8.2-0.4
		c-2.2-0.2-0.7-0.5-0.8,0.2c1.1,0.7,1.3,0.8,0.4,0.3c-1.1-0.8-0.7-0.3,1.1,1.3c1.2,1.5,2.6,2.8,3.8,4.3c3.1,3.7,4.2,5.2,6.9,8.9
		c2.6,3.6,5.1,7.2,7.4,10.9c1.2,1.9,2.9,4.2,3.6,6.3c-0.5-1.6-0.6-3.9-0.9,0.2c-1.1,11.9,11,22.2,22.2,22.2
		c12.9,0,21.1-10.2,22.2-22.2c1.3-14.2-6.8-26.6-14.6-37.6c-8-11.3-16.4-23.5-27.9-31.5c-13.1-9.1-27.8-7.8-42.7-5.8
		c-13.7,1.8-27.1,4.3-40.5,7.8c-11.6,3-18.6,15.8-15.5,27.3C432.4,323.2,444.8,330,456.4,327L456.4,327z"/>
	<path class="st0" d="M584.6,333.6c14.7,1.8,29.2,1.2,43.8-1.1c18.6-3,31.8-19.3,25.6-38.5c-9.5-29.4-56.1-30.8-80.3-22.8
		c-15,5-28.4,17.1-27.9,34c0.4,13.5,10.3,26.1,19,35.7c17.7,19.2,41.9,29.7,67.5,32.4c11.9,1.2,22.2-11.1,22.2-22.2
		c0-13-10.2-20.9-22.2-22.2c-1.6-0.2-3-0.5-0.6-0.1c-1.8-0.4-3.6-0.7-5.4-1.2c-2.8-0.7-5.6-1.6-8.4-2.6c-2.1-0.8,1.6,1-1.8-0.8
		c-1.3-0.7-2.6-1.3-3.9-2c-2.9-1.6-5.7-3.4-8.3-5.3c-2.9-2.1,2,1.8-0.7-0.6c-1.4-1.2-2.7-2.4-4.1-3.7c-2.1-2-4.1-4.2-5.9-6.5
		c1.5,1.8,0.1,0.2-0.5-0.8c-0.8-1.3-1.8-3.5-2.9-4.6c-0.6-1.2-0.7-1.3-0.3-0.2c0.7,1.8,0.5,3.8-0.6,5.7c-0.8,5.2-0.4,5-3.5,7.8
		c1.3-1.2,2.2-1,0-0.3c1.4-0.5,2.9-0.9,4.3-1.2c4.1-1,4.4-1,8.3-1.1c7.5-0.2,11.1,0.2,18.5,2.6c-0.5-0.2-0.9-0.5-1.4-0.7
		c4.9,3.4,6.2-0.5,3.9-11.8c2.4-14.9,5.8-13.3-1.2-12.2c-1.8,0.3-5.6,0.6-8.9,0.7c-8.2,0.4-16.3,0-24.4-1
		c-11.9-1.5-22.2,11.2-22.2,22.2C562.5,324.7,572.7,332.2,584.6,333.6L584.6,333.6z"/>
	<path class="st0" d="M700.6,252c-12.7-1.8-25.5-3.6-38.1,0.5c-13,4.3-24,13.9-28.3,27.1c-8.5,26.2,10.4,48.4,34.6,55.5
		c8.9,2.6,18.4,3.2,27.4,5.1c2.9,0.6,4.6,1.9,5.8,3.4c0.7,1,3.9,4.5,3.2,5.6c0,0,3.4-10.3,2.7-7.2c0.5-0.4,0.9-0.8,1.4-1.1
		c-2.3,1.2-2.3,1.2-0.2,0.2c-1.8,0.6-3.6,1-5.5,1.4c-1.6,0.3-1.6,0.3-0.1,0.2c-1.2,0.1-2.4,0.2-3.6,0.3c-8.4,0.4-16.3-1.2-22.8-4.6
		c-10.6-5.5-24.1-2.8-30.3,8c-5.8,9.9-2.7,24.8,8,30.3c20.3,10.5,45,14.4,67.1,6.9c13.1-4.5,23.6-13.4,26.8-27.3
		c2.8-12.4-1.7-26-8.9-36.1c-7.4-10.5-17.2-17.8-29.4-21.9c-9-3-18.5-3-27.7-5.3c-2-0.5-4.2-1-6.1-1.9c4.4,2-2.2-1.4-2.1-1.6
		c1.1,0.4,1.9,1.2,2.3,2.3c-0.4-0.6-0.7-1.1-1.1-1.7c0.2,1.2,0.4,2.6,0.6,3.7c-0.3,0.7-0.8,1.3-1.4,1.8c1.7-1.7,2.1-2,1.1-1
		c-0.4,0.6-1,0.9-1.7,0.9c1-0.4,2.1-0.7,3.2-0.9c0.7-0.2,1.7-0.2,4.4-0.1c2.1,0.1,5.7,0.3,6.8,0.5c11.8,1.7,23.8-2.9,27.3-15.5
		C719,268.9,712.6,253.7,700.6,252L700.6,252z"/>
</g>
<g id="Layer_2">
	<path class="st1" d="M428.6,224.7c24.1,16,54.9,20.1,82.4,10.9c3.7-1.2,2.1-7-1.6-5.8c-26,8.7-54.9,4.9-77.7-10.3
		C428.4,217.4,425.4,222.6,428.6,224.7L428.6,224.7z"/>
	<path class="st1" d="M556.9,230.4c7.8,11.8,16.9,22.3,30.8,26.5c15.1,4.5,30.9,1.7,45.9-1.1c3.8-0.7,2.2-6.5-1.6-5.8
		c-13.5,2.5-27.6,5.1-41.2,1.5c-13.2-3.5-21.6-13.2-28.8-24.2C560,224.2,554.8,227.2,556.9,230.4L556.9,230.4z"/>
	<path class="st1" d="M623,251.2c2.1,5.7,6.1,10.3,11.9,12.5c7.8,2.9,16,0,23.7-1.5c3.8-0.7,2.2-6.5-1.6-5.8
		c-10.2,2-23.6,5.9-28.2-6.8C627.4,246,621.6,247.5,623,251.2L623,251.2z"/>
	<g class="st2">
		<g>
			<path class="st3" d="M354.6,209c3.8,0,3.8-6,0-6C350.8,203.1,350.8,209,354.6,209L354.6,209z"/>
		</g>
	</g>
	<g class="st2">
		<g>
			<path class="st3" d="M354.6,209c3.8,0,3.8-6,0-6C350.8,203.1,350.8,209,354.6,209L354.6,209z"/>
		</g>
	</g>
	<path class="st1" d="M249.5,257.4c9.1-0.8,17.8-3,26.2-6.7c-1.4-0.4-2.7-0.7-4.1-1.1c4,6.5,11,8.9,18.2,10
		c9.5,1.5,19.1,1.8,28.6,1.1c19.2-1.5,37.7-7.2,54.4-16.7c3.4-1.9,0.3-7.1-3-5.2c-14.7,8.4-31,13.8-47.9,15.6
		c-8.1,0.9-16.3,0.9-24.4,0.2c-7-0.7-16.6-1.3-20.7-7.9c-0.9-1.5-2.6-1.7-4.1-1.1c-7.4,3.2-15.2,5.1-23.2,5.8
		C245.7,251.8,245.7,257.8,249.5,257.4L249.5,257.4z"/>
	<path class="st1" d="M105.2,252.7c24.8,9.8,52,19.7,78.4,10c3.6-1.3,2-7.1-1.6-5.8c-25.4,9.3-51.5-0.6-75.2-10
		C103.2,245.5,101.7,251.3,105.2,252.7L105.2,252.7z"/>
	<path class="st1" d="M188.9,274.9c16.4,1.7,32.8,1.8,49.2,0.3c3.8-0.3,3.9-6.4,0-6c-16.4,1.5-32.8,1.4-49.2-0.3
		C185.1,268.5,185.1,274.5,188.9,274.9L188.9,274.9z"/>
	<path class="st1" d="M109.4,363.4c6.6-0.2,13.2-0.4,19.7-0.7c2.7-0.1,5.6-0.5,8.3-0.2c4.2,0.4,6.2,2.9,8.2,6.2
		c4.7,7.5,7.8,16.4,15,22.1c7.9,6.1,17.9,5.3,27.2,4.5c12.9-1.1,25.8-2.2,38.7-3.3c3.8-0.3,3.9-6.3,0-6c-12.6,1.1-25.1,2.2-37.7,3.2
		c-11.7,1-22.7,1.7-29.9-9.1c-4.6-6.9-7.3-17.3-14.7-21.8c-4.5-2.7-10.2-1.7-15.1-1.6c-6.6,0.2-13.2,0.4-19.7,0.7
		C105.6,357.5,105.5,363.5,109.4,363.4L109.4,363.4z"/>
	<path class="st1" d="M236.6,387.4c4.9,2,9.8,4.4,14.8,6.2c3.4,1.2,6.4,1,9.2-1.4c3.5-3,6.3-6.9,9.6-10.2c1.9-1.9,3.8-3.7,5.8-5.5
		c0.9-0.8,1.8-1.6,2.7-2.3c1.4-1.1,2.5-2.9,3.9-1.9c1.3,0.9,2.5,3.9,3.5,5.3c1.2,1.7,2.5,3.3,3.9,4.8c2.8,3,6.1,5.7,9.8,7.5
		c7.4,3.7,15.7,4,23.1,0.2c3.5-1.7,0.4-6.9-3-5.2c-8.6,4.3-18.1,0.7-24.5-5.7c-3.1-3.1-5.2-6.8-7.7-10.4c-1.4-2-3.3-3.6-5.8-3.5
		c-3.4,0.2-6.4,3.6-8.7,5.6c-3.4,2.9-6.6,6-9.7,9.1c-3.5,3.6-5.8,8.4-11.3,7.1c-4.7-1-9.6-4-14-5.8
		C234.7,380.1,233.1,386,236.6,387.4L236.6,387.4z"/>
	<path class="st1" d="M392.4,242c3.1-0.2,6.3-0.4,9.4-0.7c3.8-0.3,3.9-6.3,0-6c-3.1,0.2-6.3,0.4-9.4,0.7
		C388.5,236.3,388.5,242.3,392.4,242L392.4,242z"/>
	<path class="st1" d="M479.4,339.6c4.7-1.1,8.9-3.4,13.5-4.5c6.2-1.5,11.3,2.3,15.6,6.3c4.4,4.1,6.8,8.7,5.9,14.7
		c-1,6.4-3.3,12.7-5.9,18.6c-1.6,3.5,3.6,6.6,5.2,3c5.7-12.9,11.5-28.1,0.2-39.6c-4.1-4.2-9.8-8.8-15.7-9.5
		c-7.1-0.8-13.6,3.5-20.3,5C474,334.6,475.6,340.4,479.4,339.6L479.4,339.6z"/>
	<path class="st1" d="M376.5,378.6c13.4,11.8,31.5,16.4,49.2,14.6c19.5-2.1,37.3-11.6,52.7-23.4c3-2.3,0-7.6-3-5.2
		c-26.3,20.2-66.1,34.7-94.6,9.7C377.9,371.8,373.6,376.1,376.5,378.6L376.5,378.6z"/>
	<path class="st1" d="M353.3,383.5c4.9-0.2,9.9-0.4,14.8-0.7c3.9-0.2,3.9-6.2,0-6c-4.9,0.2-9.9,0.4-14.8,0.7
		C349.4,377.7,349.4,383.7,353.3,383.5L353.3,383.5z"/>
	<path class="st1" d="M341.8,385.5c7.2,1,14.3,1.2,21.6,0.7c3.8-0.3,3.9-6.3,0-6c-7.2,0.5-14.4,0.3-21.6-0.7
		C338,379,338.1,385,341.8,385.5L341.8,385.5z"/>
	<path class="st1" d="M528.5,374.1c5.2,0,10.3,0,15.5,0c3.9,0,3.9-6,0-6c-5.2,0-10.3,0-15.5,0C524.6,368.1,524.6,374.1,528.5,374.1
		L528.5,374.1z"/>
	<path class="st1" d="M567.6,367.9c21.5,14.8,49.4,18.4,74,9.7c3.6-1.3,2.1-7.1-1.6-5.8c-23.2,8.3-49.1,4.9-69.4-9.1
		C567.5,360.6,564.4,365.8,567.6,367.9L567.6,367.9z"/>
	<path class="st1" d="M647.4,389.3c12,16.9,34.4,15.4,52.7,13c18.3-2.3,34.1-10.6,44.8-26c2.2-3.2-3-6.2-5.2-3
		c-9.1,13.1-22.9,20.6-38.5,22.8c-15.7,2.3-38,5-48.6-9.9C650.4,383.1,645.2,386.1,647.4,389.3L647.4,389.3z"/>
	<path d="M187.5,406.6c-15.4-6.1-33.3-4.2-47.4,4.3c-13.4,8.1-27.3,25-19.2,41.2c8.3,16.4,31.2,24.4,48.3,26.2
		c8.8,0.9,18.3-0.4,24.9-6.8c2.7-2.6,4.8-5.8,5.8-9.4c1.5-5.4-1.5-10.8,0.4-16c-2.5,0.7-4.9,1.3-7.4,2c9.3,11.5,18.6,23,27.9,34.6
		c3.6,4.4,9.8-1.9,6.3-6.3c-9.3-11.5-18.6-23-27.9-34.6c-2.3-2.8-6.4-0.9-7.4,2c-2.3,6.6,2,13.7-2.3,19.6c-5.1,7-15,6.9-22.7,5.7
		c-13-2.2-32.6-8.5-38.2-21.9c-5.5-13,10.1-26.1,20.5-30.9c11.5-5.4,24.4-5.7,36.2-1.1C190.4,417.3,192.7,408.7,187.5,406.6
		L187.5,406.6z"/>
	<path d="M321.3,463.5c7.3-16,15.1-31.7,23.4-47.1c-2.6,0-5.1,0-7.7,0c14.3,24,27.4,48.7,39.4,73.9c2.4,5.2,10.1,0.7,7.7-4.5
		c-12-25.2-25.1-49.9-39.4-73.9c-1.7-2.8-6.1-3-7.7,0c-8.3,15.5-16.1,31.2-23.4,47.1C311.2,464.2,318.9,468.7,321.3,463.5
		L321.3,463.5z"/>
	<path d="M325.1,457c8.3-1,16.7-1.9,25-2.9c5.6-0.6,5.7-9.5,0-8.9c-8.3,1-16.7,1.9-25,2.9C319.5,448.8,319.4,457.7,325.1,457
		L325.1,457z"/>
	<path d="M458.2,431.4c1.8,14.8,4.6,29.4,8.9,43.7c1.6,5.5,10,3.2,8.6-2.4c-5.2-19.6-8.2-39.5-8.9-59.8c-2.5,1-5,2.1-7.6,3.1
		c9.7,8.2,19.1,16.8,29.2,24.4c7.6,5.8,16.8,11.1,26.7,9.4c9.7-1.7,17.2-10.2,23-17.7c5.9-7.7,9.7-16.2,10-26
		c-2.9,0.4-5.8,0.8-8.7,1.2c3.5,13.2,7,26.4,10.5,39.6c3.1,11.7,5.8,23.7,12.6,33.9c3.1,4.7,10.8,0.3,7.7-4.5
		c-6.9-10.4-9.3-22.7-12.5-34.5c-3.3-12.3-6.5-24.6-9.8-36.9c-1.3-4.9-8.5-3.8-8.7,1.2c-0.3,8.1-3.8,15.3-8.9,21.5
		c-5.4,6.7-12.3,14.7-21.6,13.3c-8.6-1.3-15.8-8.1-22.2-13.5c-7-5.9-14-11.8-21-17.8c-2.8-2.3-7.7-1-7.6,3.1
		c0.8,21,3.8,41.8,9.2,62.1c2.9-0.8,5.7-1.6,8.6-2.4c-4-13.6-6.9-27.3-8.5-41.4C466.4,425.8,457.6,425.7,458.2,431.4L458.2,431.4z"
		/>
	<path d="M653.6,419.9c1.1,11.4,2.5,22.7,4.2,34.1c1.1,7.3,0.6,20.2,7.5,25c3.3,2.3,7.6,2.1,11.4,2.1c5.9,0.1,11.7-0.1,17.6-0.3
		c12.1-0.5,24.1-1.8,36.1-3.6c5.6-0.8,3.2-9.4-2.4-8.6c-9.3,1.4-18.6,2.4-27.9,3c-4.4,0.3-8.8,0.5-13.2,0.6c-3.8,0.1-9.5,1.1-13.2,0
		c-7.6-2.2-6.9-17-7.8-23.4c-1.4-9.6-2.5-19.2-3.4-28.9C661.9,414.2,653,414.2,653.6,419.9L653.6,419.9z"/>
	<path d="M681,448.3c10.9-1.3,21.8-2.6,32.7-3.8c5.6-0.7,5.7-9.5,0-8.9c-10.9,1.3-21.8,2.6-32.7,3.8
		C675.4,440.1,675.4,448.9,681,448.3L681,448.3z"/>
	<path d="M669.2,417c13.1-0.8,26.1-1.7,39.2-2.5c5.7-0.4,5.7-9.2,0-8.9c-13.1,0.8-26.1,1.7-39.2,2.5
		C663.5,408.5,663.5,417.4,669.2,417L669.2,417z"/>
	<path d="M48.6,21.5c-4.2,16.5-4.4,35.9,7.5,49.4c11.6,13.2,31.4,16.4,48.1,16.9c16.8,0.5,35.8-4.7,43.7-21
		c8.7-17.9-4.2-36.9,1.2-55.1c1.6-5.5-6.9-7.8-8.6-2.4c-4.1,14,1.4,27.2,1.7,41.1c0.4,18.7-15.8,27.8-32.8,28.4
		c-14.3,0.5-32.8-1.4-44-11.2c-12.5-10.9-12-29.1-8.3-43.8C58.5,18.3,50,16,48.6,21.5L48.6,21.5z"/>
	<path d="M176.1,29.3c-1.4,13.7-0.2,27.2,3.6,40.4c1.4,4.9,8.6,3.8,8.7-1.2c0.3-8.6,0.6-17.2,0.8-25.7c0.1-4.5-0.5-9.9,0.5-14.3
		c-0.6,3-1.1,1.2,0.9,3.6c1.5,1.8,4.2,3.2,6,4.6c11.7,9.2,23,19.1,35.5,27.2c5.4,3.4,25.1,17.8,30.4,8c1.6-2.9,0.4-7.1,0-10.1
		c-0.6-4.4-1.2-8.7-1.7-13.1c-1.2-9.2-2.4-18.5-3.6-27.7c-0.7-5.6-9.6-5.7-8.9,0c1.2,8.7,2.3,17.5,3.5,26.2
		c0.6,4.9,1.3,9.7,1.9,14.6c0.2,1.2,1.3,4.8,0.8,5.8c1.4-2.9-1.3-2.4-3.8-3.6c-14.3-6.6-26.7-16.6-38.9-26.5
		c-5.5-4.4-10.9-9-16.6-13.1c-3.5-2.5-8.4-5.3-12.2-1.5c-3.9,3.9-2.2,13.6-2.4,18.5c-0.3,9.1-0.6,18.1-0.9,27.2
		c2.9-0.4,5.8-0.8,8.7-1.2c-3.5-12.5-4.6-25.1-3.3-38.1C185.6,23.6,176.7,23.7,176.1,29.3L176.1,29.3z"/>
	<path d="M311.3,29.3c-1.9,17.1-1.2,34.1,1.8,51c1,5.6,9.6,3.2,8.6-2.4c-2.9-16.1-3.4-32.3-1.5-48.6C320.9,23.7,312,23.7,311.3,29.3
		L311.3,29.3z"/>
	<path d="M287.3,29.1c19.4-1.6,38.7-3.1,58.1-4.7c5.7-0.5,5.7-9.3,0-8.9c-19.4,1.6-38.7,3.1-58.1,4.7
		C281.7,20.7,281.6,29.5,287.3,29.1L287.3,29.1z"/>
	<path d="M366.4,27.4c-0.1,14.2,1.9,28.1,6.2,41.6c1.7,5.4,10.3,3.1,8.6-2.4c-4-12.8-6-25.8-5.9-39.2
		C375.3,21.7,366.5,21.7,366.4,27.4L366.4,27.4z"/>
	<path d="M426.5,25.5c0.6,14.9,2.4,29.7,5.3,44.3c1.1,5.6,9.7,3.2,8.6-2.4c-2.8-13.9-4.4-27.8-5-42
		C435.2,19.9,426.3,19.8,426.5,25.5L426.5,25.5z"/>
	<path d="M410.3,21.4c17-2.4,34.1-3.9,51.3-4.5c5.7-0.2,5.7-9.1,0-8.9c-18,0.6-35.9,2.3-53.7,4.8C402.4,13.6,404.7,22.2,410.3,21.4
		L410.3,21.4z"/>
	<path d="M485.3,21.8c-0.9,9.2-1.3,18.5-0.9,27.8c0.3,5.8,0.1,13.4,5.1,17.4c5.3,4.4,15,2.2,21.3,2c9.9-0.3,19.7-0.6,29.6-0.9
		c5.7-0.2,5.7-9,0-8.9c-6.6,0.2-13.2,0.4-19.7,0.6c-6.6,0.2-14.6,1.7-21.1,0.6c-8.2-1.3-6.3-11.4-6.4-17.9c0-7,0.4-13.9,1.1-20.8
		C494.8,16.1,485.9,16.2,485.3,21.8L485.3,21.8z"/>
	<path d="M566.9,18c0.5,7.9,1.3,15.7,2.3,23.6c0.7,5.6,0.6,13.6,3.9,18.5c2.8,4.1,7.5,4.2,12.1,4.4c8.2,0.3,16.4,0.3,24.5,0.1
		c5.7-0.1,5.7-9,0-8.9c-5.4,0.1-10.9,0.2-16.3,0.1c-4.7-0.1-11.2,1.3-13.5-3c-2.4-4.4-2-13.1-2.6-18.1c-0.6-5.5-1.1-11.1-1.5-16.7
		C575.4,12.4,566.5,12.3,566.9,18L566.9,18z"/>
	<path d="M581.6,15.9c11.2-0.3,22.5-0.6,33.7-1c5.7-0.2,5.7-9,0-8.9c-11.2,0.3-22.5,0.6-33.7,1C575.9,7.2,575.9,16.1,581.6,15.9
		L581.6,15.9z"/>
	<g>
		<g>
			<path d="M570.4,39.8c3.8,0,3.8-6,0-6C566.5,33.8,566.5,39.8,570.4,39.8L570.4,39.8z"/>
		</g>
	</g>
	<path d="M641.1,24.6c0.1,6.6,0.2,13.1,0.2,19.7c0.1,5.8,2.1,15.4-0.5,20.6c-2.5,5.1,5.2,9.6,7.7,4.5c2.9-6,1.8-13,1.7-19.5
		c-0.1-8.4-0.2-16.9-0.3-25.3C649.9,18.9,641,18.9,641.1,24.6L641.1,24.6z"/>
	<path d="M661.9,20.5c13.2-2.2,27.7-4.6,40.4,1c10.9,4.9,20.1,18.4,12,29.7c-6.6,9.3-21.5,13.9-32.1,16.1c-13,2.7-26.5,1.8-38.6-4.1
		c-5.1-2.5-9.6,5.2-4.5,7.7c15.4,7.5,32.5,8.4,49.1,4.1c13.3-3.4,31.4-10.4,36.5-24.5c4.8-13.3-2.6-27.5-14-34.6
		c-15.4-9.6-34.3-6.8-51.2-4C653.9,12.9,656.3,21.4,661.9,20.5L661.9,20.5z"/>
	<path d="M575.1,40.5c17.2-1.1,34.3-1.7,51.5-1.9c5.7-0.1,5.7-8.9,0-8.9c-17.2,0.2-34.4,0.8-51.5,1.9
		C569.4,31.9,569.3,40.8,575.1,40.5L575.1,40.5z"/>
</g>
<g id="GOT">
	<path d="M187.6,176.8c11.7-0.2,23.3,0.5,34.8,2.2c1.9,0.3,3.8-0.8,3.8-2.9c-0.1-26.7-10.7-57.8-39.2-65.9
		c-14.8-4.2-32.4-0.6-47.3,2.2c-14.6,2.7-29.1,7.3-41.9,15.1c-24,14.8-38.7,41-34.6,69.5c4.1,28.3,25.6,48,52.1,56
		c15.6,4.7,34.9,9.6,51,4.7c15.3-4.7,16.9-19.6,15.7-33.5c-0.3-3.8-5.9-3.9-6,0c-0.6,14.7,0.5,29.3,3,43.8c0.2,1.3,1.7,2.2,2.9,2.2
		c17.9,0.1,35.7,0.2,53.6,0.3c2.8,0,3.8-3.2,2.1-5.1c-13.1-15.2-5.1-38.4-7.9-56.5c-0.1-1-1.2-1.9-2.1-2.1
		c-16.6-3.7-33.2-7.4-49.8-11.1c-5.3-1.2-11.1-3-15.1,1.8c-3.7,4.4-2.8,10.7-8.2,14c-6.7,4.1-14.9,0.7-20-4.4c-4-4-3.5-7.7,0.2-12
		c2.3-2.7,5-5.2,7.7-7.3c10.1-8,30.3-12.9,36.2,2.9c1.3,3.6,7.2,2,5.8-1.6c-4-10.6-15.1-16.1-26.1-14.8
		c-11.8,1.3-25.5,10.7-31.3,21.2c-6.4,11.5,7.5,22.2,17.8,23.7c5.2,0.8,10.9-0.6,14.9-4.1c2-1.7,3.4-3.7,4.4-6
		c1-2.3,1.4-6.5,3.4-8.1c3.1-2.4,11.8,1.3,15.3,2.1c4.8,1.1,9.6,2.1,14.4,3.2c9.6,2.1,19.2,4.3,28.8,6.4c-0.7-0.7-1.4-1.4-2.1-2.1
		c3,19.9-5.1,42.2,9.4,59.1c0.7-1.7,1.4-3.4,2.1-5.1c-17.9-0.1-35.7-0.2-53.6-0.3c1,0.7,1.9,1.5,2.9,2.2c-2.4-13.9-3.3-28-2.8-42.2
		c-2,0-4,0-6,0c1.1,12.5,0.4,25.4-14.3,28.4c-13.8,2.9-29.1-1-42.4-4.7C95.7,241.4,76,225.9,70,201.1c-6.1-25.5,5.7-51.1,26.8-65.8
		c10.4-7.2,22.1-11.8,34.3-14.9c13.6-3.5,28.4-5.9,42.5-5.9c14.3,0,26.7,6.9,34.9,18.5c8.9,12.5,11.5,28,11.6,43
		c1.3-1,2.5-1.9,3.8-2.9c-12.1-1.8-24.2-2.7-36.4-2.4C183.7,170.8,183.7,176.8,187.6,176.8L187.6,176.8z"/>
	<path d="M218.5,132.1c7.9-12.6,24.1-15.5,37.8-16.8c16.2-1.4,35.2-1.5,47.1,11.5c12.6,13.7,3.8,31.5-1.3,46.4
		c-3.8,10.9-8.1,28.9,5.9,34.7c8,3.3,18.4,2.3,26.8,1c6.4-1,15.2-2.2,17.4-9.4c-1.8,0.2-3.7,0.5-5.5,0.7c6.7,9.8,12,20.3,15.9,31.5
		c0.5-1.1,0.9-2.3,1.4-3.4c-25.8,18.8-59.8,23.8-89.9,13c-3.7-1.3-5.2,4.5-1.6,5.8c31.5,11.2,67.6,6,94.6-13.7
		c1-0.8,1.8-2.1,1.4-3.4c-4-11.7-9.5-22.7-16.5-32.9c-1.5-2.1-4.7-1.9-5.5,0.7c-1.1,3.5-7.6,4.2-10.5,4.7c-4.5,0.8-9.1,1.2-13.7,1.2
		c-4.3,0-9.5,0.1-13.3-2.2c-4.1-2.5-4.8-7.6-4.6-12c0.9-15.6,11.4-29.1,11.7-44.9c0.3-13.7-8.3-25.1-20.4-30.9
		c-14-6.7-30.5-5.8-45.4-3.8c-14.2,1.9-28.9,6.3-36.9,19.1C211.2,132.4,216.4,135.4,218.5,132.1L218.5,132.1z"/>
	<path d="M252.1,246.6c-9.6,2.4-20,4.9-28.6-1.5c-3.1-2.3-6.1,2.9-3,5.2c9.9,7.3,22.2,4.9,33.3,2.1
		C257.4,251.5,255.8,245.7,252.1,246.6L252.1,246.6z"/>
	<path d="M227.8,181.5c10.4,3.7,16.9,15,14.8,25.9c0.7-0.7,1.4-1.4,2.1-2.1c-5.7,1.5-11.5,2.6-17.4,3.1c-3.8,0.3-3.9,6.4,0,6
		c6.4-0.6,12.7-1.7,19-3.3c0.9-0.3,1.9-1.1,2.1-2.1c2.7-14.2-5.3-28.4-19-33.3C225.8,174.4,224.2,180.2,227.8,181.5L227.8,181.5z"/>
	<path d="M240.1,157c7.9,0.9,15.8,1.8,23.7,2.8c1.6,0.2,3.1-1.5,3-3c-0.5-9.9-9.9-15.3-18.7-17c-10.1-2-20.6,0-29.2,5.6
		c-3.3,2.1-0.2,7.3,3,5.2c6.2-4,13.3-6,20.7-5.5c6.7,0.5,17.7,3.5,18.2,11.7c1-1,2-2,3-3c-7.9-0.9-15.8-1.8-23.7-2.8
		C236.3,150.5,236.3,156.6,240.1,157L240.1,157z"/>
	<path d="M322.6,142.7c14.5-5.6,29.2,5.2,27.9,20.8c-0.3,3.2,4.1,3.8,5.6,1.5c7.9-12,20.9-21.4,35.9-19.7
		c14.1,1.6,22.3,13.3,25.5,26.1c3.5,14.1,2.7,29.6,0.2,43.7c-0.6,3.4-0.8,10.4-4.2,12.4c-2.5,1.5-7.8,1.5-10.7,2
		c-8.4,1.4-16.9,2.4-25.5,3.1c1,1.3,1.9,2.5,2.9,3.8c2.6-7.3,4.2-15,4.5-22.8c0.3-5.9-0.3-12.4-5.6-16.1c-11-7.7-22.5,2.1-29.6,10.2
		c-2.6,2.9,1.7,7.2,4.3,4.3c2.9-3.3,5.8-6.8,9.6-9c3.8-2.3,10.1-3.4,13.4,0.5c3.2,3.8,2.1,10.8,1.5,15.4c-0.7,5.5-2,10.8-3.9,16
		c-0.6,1.7,1,4,2.9,3.8c7.8-0.6,15.6-1.5,23.3-2.7c5.4-0.8,14.7-0.7,18.6-5.1c1.8-2,2.2-4.9,2.8-7.4c0.9-4.1,1.7-8.3,2.2-12.4
		c1.1-8,1.5-16,1.2-24.1c-0.5-11.4-2.6-23.6-9.3-33.2c-7-10.1-18.6-15.6-30.9-14.5c-14.7,1.3-26.6,10.8-34.5,22.7
		c1.9,0.5,3.7,1,5.6,1.5c1.5-19.2-17.5-33.5-35.5-26.6C317.5,138.3,319,144.1,322.6,142.7L322.6,142.7z"/>
	<path d="M315.7,192.7c2.1-0.7,3.9-1.7,5.7-3c1.8-1.3,3.8-3.1,6.1-3.2c3.2-0.1,2.6,2.4,2.6,4.9c0,3.1-0.1,6.1-0.1,9.2
		c0,3.9,6,3.9,6,0c0-4.4,0.6-9.1,0-13.5c-0.4-2.7-1.9-4.9-4.4-6c-7.2-3.1-11.6,3.7-17.6,5.7C310.4,188.1,312,193.9,315.7,192.7
		L315.7,192.7z"/>
	<path d="M453,166.4c11.7,0.7,23.3,1.4,35,2.1c10.5,0.6,21.5,2.3,31.9,0.7c7.7-1.2,15.9-5,18.3-13c2.3-7.7-1.5-15.6-6.3-21.4
		c-11.4-13.6-30.5-19.9-47.5-22.2c-17.6-2.4-38.9-3.2-54.9,5.6c-16.3,9-26.8,26.7-26.9,45.3c0,3.9,6,3.9,6,0
		c0.1-14.5,7.3-28.5,19.1-37c13.3-9.6,30.6-9.8,46.3-8.9c15.2,0.9,30.7,4.4,43.6,12.8c6.6,4.3,13.7,10.6,15.1,18.8
		c1.9,10.7-9.9,14.2-18.2,14.5c-9.8,0.4-19.8-0.8-29.5-1.4c-10.7-0.6-21.4-1.3-32.1-1.9C449.2,160.1,449.2,166.1,453,166.4
		L453,166.4z"/>
	<path d="M432.6,222.1c18.6,12.9,42.2,17.5,64.3,11.8c10.3-2.7,20.1-7.5,28.5-14c3.7-2.9,7.4-6,8.3-10.9c1-5.1-1.2-10.1-3.2-14.7
		c-0.5-1.2-2.2-1.7-3.4-1.4c-14.3,3.8-29.2,7.2-44.1,5.7c-7.1-0.7-14.9-2.5-20.8-6.7c-5.2-3.6-9.7-12.8-2-16.7
		c3.5-1.7,0.4-6.9-3-5.2c-5.9,2.9-8.3,10-6.6,16.2c2.2,8.2,10.5,12.8,18,15.3c19.5,6.8,40.8,2.2,60.1-2.9c-1.1-0.5-2.3-0.9-3.4-1.4
		c2.4,5.4,4.1,10.5-0.5,15.2c-3.2,3.2-7.4,5.8-11.3,8.1c-7.6,4.4-16,7.4-24.7,8.8c-18.7,3.1-37.7-1.8-53.2-12.6
		C432.4,214.7,429.4,219.9,432.6,222.1L432.6,222.1z"/>
	<path d="M468.5,147c5.1,0.6,10.1,1.2,15.2,1.9c3.4,0.4,9,2.3,12.2,0.7c6.1-2.9-1.1-10.8-3.9-13.3c-11.5-10.8-28.7-10.5-40.5-0.4
		c-2.9,2.5,1.3,6.8,4.3,4.3c5.9-5.1,13.9-7.3,21.6-5.4c3.3,0.8,6.3,2.4,9,4.5c1.6,1.3,6,5.1,5.9,7.1c0.5-0.9,1-1.7,1.5-2.6
		c-1.7,1.2-9.6-0.9-11.9-1.2c-4.4-0.5-8.8-1.1-13.3-1.6C464.7,140.5,464.7,146.5,468.5,147L468.5,147z"/>
	<path d="M619.7,155.9c-15.1-13.2-36.2-7.4-49.5,5.3c-12.5,12-19,30.1-16.8,47.2c2.1,17.1,13.4,31.4,29.1,38.1
		c15,6.4,35.6,5.5,46.6-8.1c15.2-18.8,1.8-43-9.4-59.7c-2.1-3.2-7.3-0.2-5.2,3c8.8,13.2,19.2,29.1,13.8,45.6
		c-5.1,15.7-24.2,19.5-38.4,15.4c-13.6-3.9-25.1-14.5-29.2-28.2c-4.1-14-1-29.5,7.1-41.5c9.9-14.6,32-26.8,47.6-13.1
		C618.3,162.7,622.6,158.5,619.7,155.9L619.7,155.9z"/>
	<path d="M592.7,198.5c-1.9-4.6-5.3-13.5-11.5-13.3c-6.2,0.1-10.8,7.2-13.1,12.1c-6.5,14.3,7.4,23.6,20.4,24.6c3.9,0.3,3.8-5.7,0-6
		c-7.1-0.5-18.6-5.1-15.7-14.1c1-3,2.8-6.2,5.2-8.5c4.4-4.2,7.6,3.5,9,6.8C588.3,203.6,594.2,202.1,592.7,198.5L592.7,198.5z"/>
	<path d="M617.8,145.4c-0.5-12.4,12.3-20.3,21.8-25.6c11-6.1,23.4-10.3,36-11.6c13.4-1.4,24.3,2.3,33.2,12.6
		c7.9,9.2,17.3,20.2,18.7,32.7c0.7-1,1.5-1.9,2.2-2.9c-12.3,1.7-25.2,4.7-37.7,4.8c-2.4,0-5.1-0.2-7.2-1.4c-2.7-1.6-3.8-4.7-5.6-7
		c-2.1-2.8-5.3-5-8.9-4.5c-7.4,0.9-12.5,11.9-14.3,18.1c-2.7,8.9-1.9,18.3,1.9,26.8c0.4,0.9,1.6,1.5,2.6,1.5
		c11.9-0.2,23.8-0.5,35.8-0.7c2.6,0,5.4-0.4,7.9-0.2c4.3,0.4,4.3,2.4,5.1,6.2c1.3,6.2,2.6,12.3,3.9,18.5c1-1.3,1.9-2.5,2.9-3.8
		c-16.5,0.2-33-0.7-49.4-2.6c-1.5-0.2-3.2,1.5-3,3c1.9,14.9,4.4,29.7,7.5,44.4c0.7-1.2,1.4-2.5,2.1-3.7c-6.9,1-13.8,1.9-20.6,2.9
		c-3.5,0.5-22.7,5.2-21.5-2.7c0.6-3.8-5.2-5.4-5.8-1.6c-1.4,9,7,12.8,14.8,12c11.6-1.1,23.2-3.2,34.7-4.9c1.7-0.2,2.4-2.3,2.1-3.7
		c-3-14.2-5.4-28.4-7.3-42.8c-1,1-2,2-3,3c16.4,1.9,32.9,2.8,49.4,2.6c2,0,3.3-1.9,2.9-3.8c-1.5-7.1-3-14.3-4.6-21.4
		c-1.3-5.7-3.3-7.8-9.3-7.7c-14.9,0.1-29.8,0.6-44.7,0.9c0.9,0.5,1.7,1,2.6,1.5c-3.6-8.1-3.6-17.4,0-25.5c1.2-2.7,4.2-9.2,7.3-10.1
		c4-1.1,7.1,7.2,9.7,9.4c5.4,4.4,12.8,3.7,19.3,2.8c10.7-1.4,21.3-2.9,32-4.4c1.2-0.2,2.3-1.7,2.2-2.9c-1.7-14.2-11-25.8-19.9-36.3
		c-10-11.8-22.7-16.5-38.1-15.1c-14.8,1.4-29.3,6.5-42,14.1c-10.5,6.3-22.3,15.5-21.8,29.1C612,149.2,618,149.3,617.8,145.4
		L617.8,145.4z"/>
	<path d="M94.6,299.5c44-3,88.1-5.3,132.2-7c-0.9-0.5-1.7-1-2.6-1.5c10,17.3,19.4,34.9,27.9,53c0.9-1.5,1.7-3,2.6-4.5
		c-18.7-0.7-37.4-1.4-56.1-2.1c-1.9-0.1-3.5,2-2.9,3.8c4.5,13.7,8.9,27.5,13.4,41.2c0.7-1.2,1.4-2.5,2.1-3.7
		c-7.5,1.6-15,2.7-22.7,3.4c-3.5,0.3-6.9,0.5-10.4,0.6c-3.5,0.1-7.7,0.8-11-0.5c-3.4-1.4-5.3-5-7.5-7.9c-2.4-3.2-4.9-6.4-7.3-9.6
		c-3.3-4.4-6.5-9.5-11.6-11.9c-5.1-2.4-11.6-2-17.1-2.4c-7.1-0.5-14.4-0.6-21.4-1.5c-7.2-1-9.7-10.6-12.6-16.3c-3.5-7-7-14-10.6-21
		c-1.7-3.5-6.9-0.4-5.2,3c3.8,7.6,7.6,15.2,11.4,22.8c2.5,4.9,4.6,12.1,9.4,15.3c5.3,3.6,13.9,2.7,20,3.2c4.3,0.3,8.6,0.6,12.9,0.9
		c3.8,0.3,8.2,0,11.5,2.1c3.4,2.1,5.7,5.9,8.1,9c2.4,3.2,4.9,6.4,7.3,9.6c3.5,4.6,6.6,10.2,12.7,11.3c7.1,1.2,15.3,0,22.4-0.6
		c7.8-0.7,15.6-1.9,23.3-3.5c1.5-0.3,2.6-2.2,2.1-3.7c-4.5-13.7-8.9-27.5-13.4-41.2c-1,1.3-1.9,2.5-2.9,3.8
		c18.7,0.7,37.4,1.4,56.1,2.1c2.4,0.1,3.5-2.6,2.6-4.5c-8.6-18-17.9-35.7-27.9-53c-0.5-0.9-1.6-1.5-2.6-1.5
		c-44.1,1.7-88.2,4-132.2,7C90.8,293.8,90.7,299.8,94.6,299.5L94.6,299.5z"/>
	<path d="M243.5,300.3c7.6,0.7,14.5,4.6,19.2,10.6c2.2,2.8,3.9,6.1,4.8,9.6c0.7,2.9,0.8,6,2.7,8.4c1.8,2.2,4.5,2.8,7.2,2.7
		c5-0.1,10.1-1,15.1-1.3c4.5-0.3,9.1-0.6,13.7-0.7c2.7-0.1,4.6-0.6,6.2,2.1c1.2,2.1,1.7,5.4,2.5,7.6c3,9.2,6,18.4,9,27.7
		c0.7,2.1,2,4.5,2.2,6.7c0.2,2.9-1,3-3.4,3.7c-3.9,1.1-8,2.2-12.1,1.9c-14.3-0.9-13.8-21.1-27.9-22.8c-15-1.8-28.4,13.7-31.9,26.7
		c1.2-0.7,2.5-1.4,3.7-2.1c-17.8-4.6-35.8-8.9-53.7-12.9c-3.8-0.8-5.4,5-1.6,5.8c18,4,35.9,8.4,53.7,12.9c1.6,0.4,3.3-0.5,3.7-2.1
		c2.1-8.2,7.3-15.2,14.7-19.4c3.8-2.2,9.2-4.4,13.4-2.1c3.2,1.7,5,5.2,6.8,8.1c3.3,5.4,6.9,10.8,13.2,12.9c7,2.3,14.9,0.4,21.7-1.8
		c8.7-2.9,5.8-9.2,3.5-16.1c-3.2-9.9-6.4-19.7-9.6-29.6c-1.1-3.4-1.7-8.2-4.1-11c-2.1-2.5-5.1-2.3-8.1-2.2
		c-5.2,0.2-10.4,0.5-15.6,0.8c-2.3,0.2-4.5,0.3-6.8,0.5c-2.3,0.2-6.1,1.3-8.3,0.8c-4.3-1-4.4-8.5-6-12.1c-1.7-3.6-4.1-6.9-6.9-9.7
		c-5.7-5.6-13-8.8-20.9-9.5C239.6,294,239.6,300,243.5,300.3L243.5,300.3z"/>
	<path d="M298.8,311.1c-7-15,39.9-14.7,47.2-13.9c8.4,0.9,16.5,3.7,23.8,7.9c6.4,3.8,17.3,11,16.9,19.4c1-1,2-2,3-3
		c-12.4,0.6-24.8,1.1-37.2,1.7c-2.5,0.1-3.5,2.4-2.6,4.5c7.1,16.4,12.8,33.4,17.1,50.7c1-1.3,1.9-2.5,2.9-3.8
		c-13.1,1.7-26.3,2.2-39.5,1.4c-3.9-0.2-3.9,5.8,0,6c13.2,0.8,26.4,0.3,39.5-1.4c1.9-0.3,3.4-1.7,2.9-3.8
		c-4.5-17.9-10.4-35.2-17.7-52.2c-0.9,1.5-1.7,3-2.6,4.5c12.4-0.6,24.8-1.1,37.2-1.7c1.7-0.1,2.9-1.3,3-3
		c0.4-10.3-10-18.3-17.8-23.3c-9.8-6.3-21.1-9.7-32.7-10.4c-6.7-0.4-13.5,0.2-20.1,1c-5.7,0.7-11.7,1-17.2,2.7
		c-8.5,2.6-15.4,10.6-11.2,19.6C295.3,317.7,300.4,314.6,298.8,311.1L298.8,311.1z"/>
	<path d="M383,302.4c11.8-10.1,28.3-17.2,44-12.9c13.5,3.7,22.7,15.1,28.3,27.4c6.2,13.7,11.8,32.7,0.7,45.2
		c-10.4,11.7-26.4,18.3-42,18.1c-17.4-0.2-34.1-9.1-44.4-23.1c-2.3-3.1-7.5-0.1-5.2,3c21.8,29.6,65,34.8,92.5,9.7
		c6.7-6.1,11.3-13.5,11.6-22.7c0.3-8.9-2.2-18.2-5.2-26.5c-5.3-14.7-14.8-29-29.7-35.2c-19-8-39.9,0-54.7,12.7
		C375.8,300.6,380,304.9,383,302.4L383,302.4z"/>
	<path d="M407.5,329.4c6.1-3,16.4-7.6,21.4-0.2c4,6,0.5,12.9-4.9,16.4c-6,3.9-13.7,5.8-20.8,6.4c-3.1,0.3-8.3,0.9-10.7-1.6
		c-3.1-3.3-0.2-8.8,1.4-12c1.7-3.5-3.5-6.5-5.2-3c-4.4,8.9-5.5,21,7.2,22.6c10.7,1.4,24.8-1.9,33.3-8.7c7.3-5.8,9.9-16.3,4.1-24.1
		c-7.2-9.7-20-5.3-28.9-1C400.9,325.9,404,331.1,407.5,329.4L407.5,329.4z"/>
	<path d="M465.3,305.2c11.6-11.3,26.8-18.5,42.9-20.4c15.4-1.8,34.7,0.7,46.3,12c14,13.6,11.5,35.2,8.4,52.6
		c-0.6,3.4-1.1,7-2.3,10.3c-1.9,5.4-5.5,7.1-11.1,7c-9.6-0.2-19.1-1-28.7-1.5c1,1.3,1.9,2.5,2.9,3.8c2.1-10.9,2.4-22.5-2.8-32.7
		c-4.4-8.5-12.2-14.6-21.8-15.8c-10.5-1.2-21.6,3.2-30.3,8.7c-7.6,4.9-14.7,12.4-13.6,22.1c0.4,3.8,6.4,3.8,6,0
		c-1.7-15.7,23.7-25.8,36.3-24.9c20.4,1.5,23.4,25.2,20.4,41c-0.4,2,0.8,3.7,2.9,3.8c9.3,0.5,18.6,1.1,27.9,1.4
		c6.5,0.2,12.3-1.2,15.8-7.1c3.7-6.2,4.3-14.4,5.4-21.3c1.3-8.6,2.1-17.2,1-25.8c-2-15.2-10.3-27.8-24.4-34.2
		c-13.1-5.9-28-7.3-42.1-5.1c-16.3,2.5-31.5,10.1-43.3,21.6C458.2,303.7,462.5,307.9,465.3,305.2L465.3,305.2z"/>
	<path d="M429.6,278.4c10.6-4.3,21.8-6.7,33.3-6.7c1.8,0,5.8-0.6,7.4,0.3c2.4,1.3,1.3,5.7,1.2,7.9c-0.4,6.6-1.3,13.2-2.7,19.7
		c-0.8,3.8,5,5.4,5.8,1.6c1.7-8,2.8-16.1,3.1-24.2c0.2-4.7-0.3-9.4-5.6-10.7c-6.5-1.6-14.4-0.5-20.9,0.3c-7.9,1.1-15.6,3.1-23.1,6.1
		C424.4,274,426,279.8,429.6,278.4L429.6,278.4z"/>
	<path d="M548.5,281c8.8-13.6,25.5-18.6,41-18c9.6,0.4,19.1,2.7,28.3,5.5c7.1,2.1,14.5,4.3,21.2,7.6c5.9,2.9,11.8,6.8,14.7,12.9
		c3.7,7.8,0.9,16.4-4.5,22.6c-12.2,13.7-32.3,12-48.9,10.5c-2.6-0.2-4,3.5-2.1,5.1c20.9,18.6,52.2,22.5,77,9.6
		c-1.5-0.9-3-1.7-4.5-2.6c-0.9,9.7-8.5,16.9-16.1,22.1c-8.4,5.7-17.8,10-27.7,12.2c-19.5,4.3-40-0.3-56.4-11.6c-3.2-2.2-6.2,3-3,5.2
		c18.6,12.9,42.4,17.3,64.4,11.4c18.4-5,42.9-18,44.9-39.2c0.2-2.4-2.7-3.6-4.5-2.6c-22.3,11.7-50.9,8.2-69.7-8.6
		c-0.7,1.7-1.4,3.4-2.1,5.1c15.6,1.4,33.5,2.8,47-6.8c10.2-7.2,17.4-20.3,12.7-32.8c-4.5-12-17.1-17.9-28.4-21.8
		c-15.6-5.5-32.4-10.6-49-9.6c-15.4,1-30.6,7.7-39.2,20.9C541.1,281.3,546.3,284.3,548.5,281L548.5,281z"/>
	<path d="M584.9,305.4c7.8,2.5,16.2,9.1,24.4,3.5c7.7-5.4,2.8-14.5-3-19.1c-7.3-5.7-16.8-8.3-25.9-7.3c-7.2,0.8-14.6,4.6-15.3,12.5
		c-0.3,3.9,5.7,3.8,6,0c0.5-5.5,8.2-6.6,12.5-6.7c5.6-0.1,11.2,1.4,16.1,4.2c2.4,1.4,5.4,3.4,6.7,5.9c2.1,4-0.6,6.6-4.6,6.7
		c-5.3,0.1-10.3-3.9-15.3-5.5C582.8,298.4,581.2,304.2,584.9,305.4L584.9,305.4z"/>
	<path d="M655.6,318c8.1,8.3,17.7,14.5,28.4,18.6c3.6,1.4,5.2-4.4,1.6-5.8c-9.8-3.8-18.4-9.6-25.8-17.1
		C657.2,311,652.9,315.2,655.6,318L655.6,318z"/>
	<path d="M657.8,271c19.7-14.2,48.6-22.5,72.2-13.3c5.6,2.2,11,5.7,14.4,10.8c4.7,6.9,2.5,14.7-5.2,18.1
		c-12.9,5.6-25.5-6.4-38.3-1.8c-8.1,2.9-12.2,12-6.5,19.2c3.1,3.9,7.6,6.1,12.1,8.1c6.2,2.8,12.5,5.4,18.4,8.9
		c10.5,6.2,21,16.6,20.1,29.8c-0.8,12.3-11.8,21-21.7,26.5c-13.3,7.4-28.5,11.4-43.7,11.7c-12.5,0.2-27.4-2.6-33.7-14.7
		c-1.8-3.4-7-0.4-5.2,3c12.3,23.6,48.2,19.5,68.9,12.5c21.9-7.4,50.7-26.1,38.6-53.1c-5.7-12.7-17.9-20.3-30.1-26
		c-5.8-2.7-13.5-4.8-18.2-9.5c-3-3.1-2.9-7.3,0.9-9.7c3.5-2.3,7.8-1.8,11.7-1c12.5,2.7,27.5,7.7,37-4.4c8.3-10.5,0.6-23-8.8-29.5
		c-11.8-8.2-27.6-9.4-41.5-7.9c-16.1,1.8-31.3,7.7-44.4,17.1C651.6,268,654.6,273.3,657.8,271L657.8,271z"/>
	<g>
		<g>
			<path d="M683.4,336.3c3.8,0,3.8-6,0-6C679.6,330.4,679.6,336.3,683.4,336.3L683.4,336.3z"/>
		</g>
	</g>
	<g>
		<g>
			<path d="M683.4,337c3.8,0,3.8-6,0-6C679.6,331.1,679.6,337,683.4,337L683.4,337z"/>
		</g>
	</g>
	<path d="M684.9,331.4c-0.2-0.1-0.4-0.2-0.6-0.3c-1.4,1.4-2.7,2.7-4.1,4.1c4.5,3.3-0.3,8.5-3.9,9.7c-4.4,1.4-9.2,0-13.6-1.1
		c-3.8-1-5.4,4.8-1.6,5.8c7.6,1.9,16.9,3.6,23.2-2.6c5-4.9,4.6-12.9-1.1-17c-2.4-1.8-5.8,1.7-4.1,4.1c0.9,1.2,1.4,1.8,2.7,2.5
		C685.4,338.2,688.4,333.1,684.9,331.4L684.9,331.4z"/>
</g>
</svg>
