<?xml version="1.0" encoding="utf-8"?>
<!-- Generator: Adobe Illustrator 22.1.0, SVG Export Plug-In . SVG Version: 6.00 Build 0)  -->
<svg version="1.1" xmlns="http://www.w3.org/2000/svg" xmlns:xlink="http://www.w3.org/1999/xlink" x="0px" y="0px"
	 viewBox="0 0 540 460" style="enable-background:new 0 0 540 460;" xml:space="preserve">
<style type="text/css">
	.st0{fill:#29ABE2;}
	.st1{fill:#0071BC;}
	.st2{fill:#ED1C24;}
	.st3{fill:#C1272D;}
	.st4{fill:#00A99D;}
	.st5{fill:#FCEE21;}
</style>
<g id="player_1">
	<g>
		<path d="M259.3,308.6c-1.7-3.1-10.1-16.3-10.5-16.8l-0.4-0.7c-0.5-1.2-1.1-2.4-1.7-3.6c-7.5-13.7-22.9-21.8-43.3-22.9
			c-19.6-1-41.7,4.6-62.2,15.9c-20.5,11.3-37.1,26.9-46.7,44c-5.7,10.2-8.6,20.3-8.6,29.6c0,6.9,1.6,13.4,4.8,19.3
			c0.6,1.1,1.3,2.2,2,3.3l0.9,1.6c0,0,1.8,3.2,3.8,6.9c2,3.6,4.3,7.7,5.2,9.3c6.5,11.8,20.7,18.3,39.9,18.3c0.5,0,0.9,0,1.4,0
			c19-0.3,40.7-6.7,61.3-18C248.9,370.7,272.6,332.8,259.3,308.6z M105,377c-1.2-1-2.3-2.1-3.2-3.3c-1-1.2-1.9-2.4-2.6-3.7
			c-0.2-0.3-0.4-0.6-0.6-1c-12.8-23.2,8.3-59.4,46.9-80.6c19-10.5,39.4-15.7,57.4-14.8c17.1,0.9,29.9,7.4,35.9,18.3
			c0.1,0.2,0.2,0.3,0.3,0.5c0.7,1.3,1.3,2.7,1.8,4.2c0.5,1.5,0.9,3,1.2,4.5c4.1,22.8-16.3,52.9-50.1,71.5
			C158.2,391,122.3,392.2,105,377z M201,386.8c-19.3,10.6-39.6,16.7-57.1,16.9c-0.4,0-0.9,0-1.3,0c-15,0-26-4.4-31.2-12.4
			c6.5,2.8,14.2,4.5,22.7,4.9c1.5,0.1,3.1,0.1,4.6,0.1c18.4,0,38.6-5.6,57.5-16c20.5-11.3,37.1-26.9,46.7-44
			c4.6-8.2,7.4-16.2,8.3-23.9c0.1,0.2,0.2,0.3,0.3,0.4C262.1,332.4,239.5,365.6,201,386.8z"/>
		<path class="st0" d="M120.5,368.4c-1.4-0.9-2.7-1.9-3.8-3l106.7-59.2c0.4,1.5,0.6,3.1,0.6,4.8c0.1,5.9-2.1,12.6-6.5,19.7
			c-7.2,11.4-19.2,22-33.8,30.1c-14.6,8-30,12.5-43.4,12.5h-0.1c-6.4,0-12-1-16.5-3C122.6,369.6,121.5,369,120.5,368.4z"/>
		<path class="st0" d="M191.8,372.5c-33.6,18.5-69.6,19.7-86.8,4.5c-1.2-1-2.3-2.1-3.2-3.3l10.5-5.8h0c1,1.2,2.1,2.3,3.4,3.2
			c5.9,4.6,14.3,7,24.5,7h0.1c14.2,0,30.5-4.6,45.8-13.1c15.4-8.5,28-19.8,35.6-31.8c5.6-8.9,8-17.5,7.1-25c-0.2-1.6-0.5-3.1-1-4.6
			l12.9-7.1c0.5,1.5,0.9,3,1.2,4.5C246.1,323.8,225.7,353.9,191.8,372.5z"/>
		<path class="st0" d="M201,386.8c-19.3,10.6-39.6,16.7-57.1,16.9c-0.4,0-0.9,0-1.3,0c-15,0-26-4.4-31.2-12.4
			c6.5,2.8,14.2,4.5,22.7,4.9c1.5,0.1,3.1,0.1,4.6,0.1c18.4,0,38.6-5.6,57.5-16c20.5-11.3,37.1-26.9,46.7-44
			c4.6-8.2,7.4-16.2,8.3-23.9c0.1,0.2,0.2,0.3,0.3,0.4C262.1,332.4,239.5,365.6,201,386.8z"/>
		<path d="M223.5,306.1c-0.4-1.4-0.9-2.8-1.6-4c0-0.1-0.1-0.1-0.1-0.2L114,361.8c0.8,1.3,1.7,2.5,2.7,3.6c1.1,1.1,2.4,2.1,3.8,3
			l103.6-57.5C224.1,309.3,223.9,307.7,223.5,306.1z M112.3,367.9L112.3,367.9c-1-1.1-1.9-2.4-2.6-3.7L99.2,370
			c0.8,1.3,1.7,2.5,2.6,3.7c1,1.2,2.1,2.3,3.2,3.3l10.6-5.9C114.4,370.1,113.3,369.1,112.3,367.9z M240.8,296.5
			c-0.5-1.4-1.1-2.8-1.8-4.2l-12.9,7.2c0,0.1,0.1,0.1,0.1,0.2c0.7,1.3,1.3,2.6,1.7,3.9c0.5,1.5,0.8,3,1,4.6l13-7.2
			C241.7,299.5,241.3,298,240.8,296.5z"/>
	</g>
	<g>
		<path class="st0" d="M195.5,290.5h-0.1c-13.4,0-28.8,4.4-43.4,12.5c-14.6,8.1-26.7,18.8-33.8,30.1c-6.9,10.9-8.4,21-4.3,28.5
			c0,0.1,0.1,0.1,0.1,0.2l107.7-59.8C217.6,294.6,208.3,290.6,195.5,290.5z M242,301c-0.3-1.5-0.7-3-1.2-4.5
			c-0.5-1.4-1.1-2.8-1.8-4.2c-0.1-0.2-0.2-0.3-0.3-0.5c-6-10.9-18.7-17.4-35.9-18.3c-17.9-0.9-38.3,4.3-57.4,14.8
			c-38.6,21.3-59.7,57.4-46.9,80.6c0.2,0.3,0.4,0.7,0.6,1c0.8,1.3,1.7,2.5,2.6,3.7c1,1.2,2.1,2.3,3.2,3.3
			c17.2,15.2,53.2,14,86.8-4.5C225.7,353.9,246.1,323.8,242,301z M221.8,333.3c-7.6,12-20.3,23.3-35.6,31.8
			c-15.3,8.4-31.6,13.1-45.8,13.1h-0.1c-10.3,0-18.7-2.5-24.5-7c-1.3-1-2.4-2.1-3.4-3.2h0c-1-1.1-1.9-2.4-2.6-3.7
			c0-0.1-0.1-0.1-0.1-0.2c-1.9-3.5-2.9-7.4-2.9-11.6c0-6.7,2.5-14.2,7.3-21.9c7.6-12,20.3-23.3,35.6-31.8
			c15.3-8.4,31.6-13.1,45.8-13.1h0.1c14.7,0,25.5,5,30.6,14c0,0.1,0.1,0.1,0.1,0.2c0.7,1.3,1.3,2.6,1.7,3.9c0.5,1.5,0.8,3,1,4.6
			C229.8,315.8,227.4,324.4,221.8,333.3z M221.8,302.1c0-0.1-0.1-0.1-0.1-0.2c-4.2-7.3-13.5-11.4-26.2-11.4h-0.1
			c-13.4,0-28.8,4.4-43.4,12.5c-14.6,8.1-26.7,18.8-33.8,30.1c-6.9,10.9-8.4,21-4.3,28.5c0,0.1,0.1,0.1,0.1,0.2
			c0.8,1.3,1.7,2.5,2.7,3.6c1.1,1.1,2.4,2.1,3.8,3c1,0.6,2.1,1.2,3.2,1.7c4.5,2,10,3,16.5,3h0.1c13.4,0,28.8-4.4,43.4-12.5
			c14.6-8.1,26.6-18.8,33.8-30.1c4.5-7,6.7-13.8,6.5-19.7c0-1.7-0.2-3.3-0.6-4.8C223.1,304.7,222.5,303.4,221.8,302.1z M195.5,290.5
			h-0.1c-13.4,0-28.8,4.4-43.4,12.5c-14.6,8.1-26.7,18.8-33.8,30.1c-6.9,10.9-8.4,21-4.3,28.5c0,0.1,0.1,0.1,0.1,0.2l107.7-59.8
			C217.6,294.6,208.3,290.6,195.5,290.5z"/>
	</g>
	<g>
		<path class="st1" d="M224.1,310.9c0.1,5.9-2.1,12.6-6.5,19.7c-7.2,11.4-19.2,22-33.8,30.1c-14.6,8-30,12.5-43.4,12.5h-0.1
			c-6.4,0-12-1-16.5-3c-1.2-0.5-2.2-1.1-3.2-1.7c-1.4-0.9-2.7-1.9-3.8-3c-1.1-1.1-2-2.3-2.7-3.6c0-0.1-0.1-0.1-0.1-0.2
			c-4.1-7.5-2.6-17.6,4.3-28.5c7.2-11.3,19.2-22,33.8-30.1c14.6-8,30-12.5,43.4-12.5h0.1c12.8,0,22.1,4.1,26.2,11.4
			c0,0.1,0.1,0.1,0.1,0.2c0.7,1.3,1.2,2.6,1.6,4C223.9,307.7,224.1,309.3,224.1,310.9z"/>
		<path d="M228.9,308.2c-0.2-1.6-0.5-3.1-1-4.6c-0.4-1.4-1-2.7-1.7-3.9c0-0.1-0.1-0.1-0.1-0.2c-5.1-9-15.9-14-30.6-14h-0.1
			c-14.2,0-30.5,4.6-45.8,13.1c-15.4,8.5-28,19.8-35.6,31.8c-4.9,7.7-7.3,15.2-7.3,21.9c0,4.2,1,8.1,2.9,11.6c0,0.1,0.1,0.1,0.1,0.2
			c0.8,1.3,1.6,2.6,2.6,3.7h0c1,1.2,2.1,2.3,3.4,3.2c5.9,4.6,14.3,7,24.5,7h0.1c14.2,0,30.5-4.6,45.8-13.1
			c15.4-8.5,28-19.8,35.6-31.8C227.4,324.4,229.8,315.8,228.9,308.2z M217.5,330.6c-7.2,11.4-19.2,22-33.8,30.1
			c-14.6,8-30,12.5-43.4,12.5h-0.1c-6.4,0-12-1-16.5-3c-1.2-0.5-2.2-1.1-3.2-1.7c-1.4-0.9-2.7-1.9-3.8-3c-1.1-1.1-2-2.3-2.7-3.6
			c0-0.1-0.1-0.1-0.1-0.2c-4.1-7.5-2.6-17.6,4.3-28.5c7.2-11.3,19.2-22,33.8-30.1c14.6-8,30-12.5,43.4-12.5h0.1
			c12.8,0,22.1,4.1,26.2,11.4c0,0.1,0.1,0.1,0.1,0.2c0.7,1.3,1.2,2.6,1.6,4c0.4,1.5,0.6,3.1,0.6,4.8
			C224.2,316.8,222,323.5,217.5,330.6z"/>
	</g>
</g>
<g id="player_2">
	<g>
		<path class="st2" d="M183.4,221.4c9-2.5,16.7-6.3,22.8-11.1c-0.1,0.2-0.1,0.4-0.1,0.5c-6.2,21.4-45.6,28.9-87.9,16.6
			c-21.2-6.1-39.8-16.2-52.4-28.4c-9.6-9.3-14.7-18.9-14.7-27.5c0-1.5,0.1-2.9,0.4-4.3c2.7,6.6,6.9,13.2,12.6,19.5
			c1,1.1,2.1,2.3,3.2,3.3c13,13,31.3,23.4,52,29.4C141.7,226,164.5,226.7,183.4,221.4z"/>
		<path class="st2" d="M196,187.7c-0.7,1.4-1.5,2.7-2.5,4c-4.7,5.9-12.5,10.3-22.8,12.6c-13.9,3.1-30.8,2.2-47.7-2.7
			c-16.8-4.9-31.6-13.1-41.7-23.2c0,0,0,0-0.1-0.1c-7.3-7.3-11.5-15-12.4-22.3c-0.2-1.6-0.2-3.2-0.1-4.7L57.3,148
			c-0.1,1.5-0.2,3.1-0.1,4.7c0.6,9.2,5.2,18.8,13.5,28.1c12,13.4,30.1,24,51,30.1c20.9,6,41.9,6.7,59.2,1.9
			c12.2-3.4,21.4-9.3,26.8-17c0.9-1.3,1.7-2.6,2.4-4L196,187.7z M84.8,174.8C84.9,174.9,84.9,174.9,84.8,174.8
			c9.5,9.5,23.6,17.3,39.6,22c16,4.6,32.1,5.6,45.2,2.6c8.2-1.8,14.5-5,18.5-9.3c1.2-1.2,2.1-2.5,2.9-3.8L73.7,152.8v0.3
			c0,1.5,0.2,3,0.5,4.6C75.5,163.2,79.1,169.1,84.8,174.8z"/>
		<path d="M74.4,148.3c-0.4,1.5-0.6,3-0.6,4.5v0.3c0,1.5,0.2,3,0.5,4.6l113.9,32.6c1.2-1.2,2.1-2.5,2.9-3.8h0c0.7-1.3,1.3-2.6,1.7-4
			c0-0.1,0-0.1,0.1-0.2L74.4,148.3z M69.5,146.9L58,143.6c-0.4,1.5-0.6,3-0.7,4.5v0c-0.1,1.5-0.2,3.1-0.1,4.7l11.7,3.3
			c-0.2-1.6-0.2-3.2-0.1-4.7C68.9,149.8,69.1,148.3,69.5,146.9z M197.6,183.5c0,0.1,0,0.2-0.1,0.2c-0.4,1.4-0.9,2.7-1.6,4
			c-0.7,1.4-1.5,2.7-2.5,4l14.3,4.1c0.9-1.3,1.7-2.6,2.4-4c0.7-1.4,1.2-2.8,1.7-4.2L197.6,183.5z"/>
	</g>
	<g>
		<path class="st2" d="M182.3,155.5C182.3,155.5,182.3,155.5,182.3,155.5c-9.6-9.5-23.6-17.3-39.6-22c-16-4.7-32.1-5.6-45.2-2.6
			c-12.6,2.8-20.8,8.9-23.2,17.1c0,0.1,0,0.2-0.1,0.2l118.5,33.9C195.1,174,191.3,164.6,182.3,155.5z M84.8,174.8
			C84.9,174.9,84.9,174.9,84.8,174.8c9.5,9.5,23.6,17.3,39.6,22c16,4.6,32.1,5.6,45.2,2.6c8.2-1.8,14.5-5,18.5-9.3L74.3,157.6
			C75.5,163.2,79.1,169.1,84.8,174.8z M199.5,148.8c-12-13.3-30.1-24-51-30.1c-42.4-12.3-82.8-1.6-90.2,23.8
			c-0.1,0.4-0.2,0.7-0.3,1.1c-0.4,1.5-0.6,3-0.7,4.5v0c-0.1,1.5-0.2,3.1-0.1,4.7c0.6,9.2,5.2,18.8,13.5,28.1
			c12,13.4,30.1,24,51,30.1c20.9,6,41.9,6.7,59.2,1.9c12.2-3.4,21.4-9.3,26.8-17c0.9-1.3,1.7-2.6,2.4-4c0.7-1.4,1.2-2.8,1.7-4.2
			c0.1-0.2,0.1-0.3,0.2-0.5C215.4,175.1,211,161.5,199.5,148.8z M197.6,183.7c-0.4,1.4-0.9,2.7-1.6,4c-0.7,1.4-1.5,2.7-2.5,4
			c-4.7,5.9-12.5,10.3-22.8,12.6c-13.9,3.1-30.8,2.2-47.7-2.7c-16.8-4.9-31.6-13.1-41.7-23.2c0,0,0,0-0.1-0.1
			c-7.3-7.3-11.5-15-12.4-22.3c-0.2-1.6-0.2-3.2-0.1-4.7c0.1-1.5,0.4-3,0.8-4.5c0-0.1,0-0.2,0.1-0.2c2.9-10,12.4-17.3,26.9-20.6
			c13.9-3.1,30.8-2.2,47.7,2.7c16.8,4.9,31.6,13.1,41.6,23.1l0.1,0.1c10.4,10.4,14.5,21.6,11.7,31.5
			C197.6,183.6,197.6,183.7,197.6,183.7z M182.3,155.5c-9.5-9.5-23.5-17.2-39.5-21.9c-16-4.7-32.1-5.6-45.2-2.6
			c-12.6,2.8-20.8,8.9-23.2,17.1c0,0.1,0,0.2-0.1,0.2c-0.4,1.5-0.6,3-0.6,4.5v0.3c0,1.5,0.2,3,0.5,4.6c1.3,5.6,4.9,11.5,10.6,17.3
			c0,0,0,0,0.1,0.1c9.5,9.5,23.5,17.2,39.5,21.9c16,4.6,32.1,5.6,45.2,2.6c8.2-1.8,14.5-5,18.5-9.3c1.2-1.2,2.1-2.5,2.9-3.8h0
			c0.7-1.3,1.3-2.6,1.7-4c0-0.1,0-0.1,0.1-0.2C195.1,174,191.3,164.6,182.3,155.5C182.3,155.5,182.3,155.5,182.3,155.5z"/>
		<path d="M206.2,142.8c-13.1-14.6-32.7-26.2-55.2-32.7c-22.5-6.5-45.3-7.2-64.1-1.9c-9.8,2.8-18,7-24.3,12.4
			c-6.3,5.4-10.7,12-12.9,19.5c-0.3,1.2-0.6,2.5-0.9,3.7l-0.5,1.8c0,0-1,3.6-2.1,7.6s-2.4,8.5-2.9,10.3c-3.8,13,1.7,27.6,15.3,41.2
			c0.3,0.3,0.6,0.6,1,1c13.6,13.2,33.5,24.1,56.1,30.6c47.8,13.9,91.3,3.9,99-22.7c1-3.4,4.4-18.6,4.5-19.3l0.2-0.8
			c0.5-1.2,0.9-2.4,1.3-3.7C225,174.5,219.8,157.9,206.2,142.8z M206,210.8c-6.2,21.4-45.6,28.9-87.9,16.6
			c-21.2-6.1-39.8-16.2-52.4-28.4c-9.6-9.3-14.7-18.9-14.7-27.5c0-1.5,0.1-2.9,0.4-4.3c2.7,6.6,6.9,13.2,12.6,19.5
			c1,1.1,2.1,2.3,3.2,3.3c13,13,31.3,23.4,52,29.4c22.5,6.5,45.3,7.2,64.1,1.9c9-2.5,16.7-6.3,22.8-11.1
			C206.1,210.5,206.1,210.7,206,210.8z M212,187.1c0,0.2-0.1,0.3-0.2,0.5c-0.4,1.4-1,2.8-1.7,4.2c-0.7,1.4-1.5,2.7-2.4,4
			c-5.4,7.7-14.6,13.5-26.8,17c-17.3,4.9-38.3,4.2-59.2-1.9c-20.9-6.1-39-16.8-51-30.1c-8.3-9.2-12.9-18.9-13.5-28.1
			c-0.1-1.6-0.1-3.1,0.1-4.7v0c0.1-1.5,0.4-3,0.7-4.5c0.1-0.4,0.2-0.7,0.3-1.1c7.4-25.4,47.8-36.1,90.2-23.8c20.9,6,39,16.8,51,30.1
			C211,161.5,215.4,175.1,212,187.1z"/>
	</g>
	<g>
		<path class="st3" d="M192.8,182.1c0,0.1,0,0.1-0.1,0.2c-0.4,1.4-1,2.7-1.7,4h0c-0.8,1.4-1.8,2.7-2.9,3.8
			c-4.1,4.2-10.4,7.4-18.5,9.3c-13.1,3-29.1,2-45.2-2.6c-16-4.6-30-12.4-39.5-21.9c0,0,0,0-0.1-0.1c-5.7-5.7-9.3-11.6-10.6-17.3
			c-0.3-1.5-0.5-3.1-0.5-4.6v-0.3c0-1.5,0.2-3,0.6-4.5c0-0.1,0-0.2,0.1-0.2c2.4-8.2,10.6-14.2,23.2-17.1c13.1-3,29.1-2,45.2,2.6
			c16,4.6,30,12.4,39.5,21.9c0,0,0,0,0.1,0.1C191.3,164.6,195.1,174,192.8,182.1z"/>
		<path d="M185.9,152L185.9,152c-10.1-10.1-24.9-18.4-41.7-23.2c-16.8-4.9-33.8-5.8-47.7-2.7c-14.4,3.3-24,10.6-26.9,20.6
			c0,0.1,0,0.2-0.1,0.2c-0.4,1.5-0.7,3-0.8,4.5c-0.1,1.6-0.1,3.1,0.1,4.7c0.9,7.4,5.1,15,12.4,22.3c0,0,0,0,0.1,0.1
			c10.1,10.1,24.8,18.3,41.7,23.2c16.8,4.9,33.8,5.8,47.7,2.7c10.3-2.3,18.1-6.7,22.8-12.6c1-1.3,1.8-2.6,2.5-4
			c0.7-1.3,1.2-2.6,1.6-4c0-0.1,0-0.2,0.1-0.2C200.4,173.6,196.2,162.4,185.9,152z M192.8,182.1c0,0.1,0,0.1-0.1,0.2
			c-0.4,1.4-1,2.7-1.7,4h0c-0.8,1.4-1.8,2.7-2.9,3.8c-4.1,4.2-10.4,7.4-18.5,9.3c-13.1,3-29.1,2-45.2-2.6c-16-4.6-30-12.4-39.5-21.9
			c0,0,0,0-0.1-0.1c-5.7-5.7-9.3-11.6-10.6-17.3c-0.3-1.5-0.5-3.1-0.5-4.6v-0.3c0-1.5,0.2-3,0.6-4.5c0-0.1,0-0.2,0.1-0.2
			c2.4-8.2,10.6-14.2,23.2-17.1c13.1-3,29.1-2,45.2,2.6c16,4.6,30,12.4,39.5,21.9c0,0,0,0,0.1,0.1
			C191.3,164.6,195.1,174,192.8,182.1z"/>
	</g>
</g>
<g id="Layer_2">
	<polygon class="st4" points="405.2,328.8 475.5,276.4 471.3,363.4 408.4,407.5 	"/>
	<polygon class="st4" points="308.2,122.8 399.4,169 351.2,228.7 261.1,195.2 	"/>
</g>
<g id="Layer_1">
	<path d="M404.3,412.9C404.2,412.9,404.2,412.9,404.3,412.9C404.2,412.9,404.2,412.9,404.3,412.9c-0.1,0-0.1,0-0.1,0
		C404.1,412.9,404.1,412.9,404.3,412.9C404.2,412.9,404.2,412.9,404.3,412.9z"/>
	<path d="M481,272.9c0,0,0-0.1,0-0.1c0-0.1,0-0.1,0-0.2c0,0,0,0,0,0c0-0.1,0-0.2-0.1-0.4c0,0,0,0,0,0c-0.1-0.3-0.2-0.7-0.4-1
		c0,0,0,0,0,0v0c0,0,0,0,0,0c0,0,0,0,0-0.1c0,0,0-0.1-0.1-0.1c0-0.1-0.1-0.2-0.1-0.2c0,0,0-0.1-0.1-0.1c0,0,0,0,0,0
		c0,0-0.1-0.1-0.1-0.1c0,0,0,0-0.1-0.1c0,0,0,0,0,0c0,0,0,0,0,0c0,0-0.1-0.1-0.1-0.1c-0.1-0.1-0.2-0.2-0.3-0.3c0,0,0,0,0,0
		c-0.1-0.1-0.3-0.2-0.4-0.3c0,0,0,0,0,0l0,0c-0.1-0.1-0.3-0.2-0.4-0.2c0.1,0,0.2,0.1,0.3,0.1l-71.1-45c0,0-0.1-0.1-0.2-0.1
		c-0.1-0.1-0.3-0.2-0.4-0.2c0,0,0,0,0,0c-0.1,0-0.1-0.1-0.2-0.1c-0.2-0.1-0.5-0.2-0.7-0.2c-0.1,0-0.2,0-0.3-0.1c-0.2,0-0.4,0-0.6,0
		c-0.8,0-1.5,0.2-2.2,0.5l-78.5,42.9l-0.2,0.1c0,0,0,0-0.1,0c-0.2,0.1-0.3,0.2-0.4,0.3c0,0,0,0-0.1,0c-0.1,0.1-0.3,0.2-0.4,0.3
		c0,0-0.1,0.1-0.1,0.1c-0.1,0.1-0.2,0.2-0.3,0.3c-0.1,0.1-0.1,0.1-0.2,0.2c-0.2,0.3-0.4,0.6-0.6,1c-0.1,0.2-0.1,0.4-0.2,0.5
		c-0.1,0.2-0.1,0.4-0.1,0.6c0,0.2,0,0.4,0,0.6c0,0.3,0,0.5,0.1,0.7c0,0.1,0,0.2,0.1,0.4c0,0.2,0.1,0.3,0.2,0.5c0,0,0,0,0,0
		c0.1,0.1,0.1,0.3,0.2,0.4v0c-0.3,0.6-0.5,1.4-0.5,2.2l1,80.7c0,2.5,2,4.4,4.5,4.4h0.1c0.4,0,0.8-0.1,1.1-0.2l71.6,51.7
		c0.8,0.6,1.7,0.9,2.6,0.9c0.3,0,0.7,0,1-0.1c0,0,0,0,0,0c0,0,0,0,0.1,0c0,0,0,0,0.1,0c0.3,0.1,0.6,0.1,1,0.1c0.1,0,0.2,0,0.2,0
		c0.1,0,0.2,0,0.3,0c0.4,0,0.7-0.1,1.1-0.3c0.1,0,0.1,0,0.2-0.1c0.1-0.1,0.2-0.1,0.4-0.2c0.2-0.1,0.3-0.2,0.5-0.3l65.8-46l0.2-0.1
		c0.2-0.1,0.3-0.2,0.4-0.4c0.1-0.1,0.3-0.2,0.4-0.3c0,0,0,0,0,0c0.1-0.1,0.2-0.3,0.3-0.4c0.1-0.1,0.2-0.3,0.2-0.4
		c0,0,0.1-0.1,0.1-0.2c0.1-0.1,0.1-0.3,0.2-0.4c0-0.1,0.1-0.2,0.1-0.3c0,0,0,0,0-0.1c0-0.1,0-0.1,0-0.2l0-0.2c0,0,0,0,0,0
		c0-0.1,0-0.2,0-0.3v0c0,0,0-0.1,0-0.1l5.2-88.9c0,0,0-0.1,0-0.1c0,0,0-0.1,0-0.1c0-0.1,0-0.2,0-0.3C481,273.1,481,273,481,272.9z
		 M332.1,351.6l-0.9-71.6l68.5,50l0.9,71.1L332.1,351.6z M404.1,322.2L335,271.7l70.1-38.3l63.6,40.2L404.1,322.2z M466.9,359.9
		l-57.3,40l-0.9-69.9l62.7-47.3L466.9,359.9z"/>
	<path d="M478.9,269.5c-0.1-0.1-0.3-0.2-0.4-0.2c0.1,0,0.2,0.1,0.3,0.1L478.9,269.5z"/>
	<path d="M480.3,270.9c0-0.1-0.1-0.2-0.1-0.2c0,0,0.1,0.1,0.1,0.1C480.3,270.8,480.3,270.8,480.3,270.9z"/>
	<path d="M478.9,269.5c-0.1-0.1-0.3-0.2-0.4-0.2c0.1,0,0.2,0.1,0.3,0.1L478.9,269.5z"/>
	<path d="M480.3,270.9c0-0.1-0.1-0.2-0.1-0.2c0,0,0.1,0.1,0.1,0.1C480.3,270.8,480.3,270.8,480.3,270.9z"/>
	<path d="M404.2,412.9L404.2,412.9C404.2,412.9,404.2,412.9,404.2,412.9C404.1,412.9,404.1,412.9,404.2,412.9
		C404.1,412.9,404.1,412.9,404.2,412.9z"/>
	<path d="M304,124.2L304,124.2c0,0,0,0,0,0.1C304,124.2,304,124.2,304,124.2z"/>
	<path d="M312.9,122.6c0-0.2,0-0.3-0.1-0.5l0,0C312.8,122.3,312.9,122.5,312.9,122.6z"/>
	<path d="M312.9,122.6c0-0.2,0-0.3-0.1-0.5l0,0C312.8,122.3,312.9,122.5,312.9,122.6z"/>
	<path d="M405.6,169.6c0-0.2,0-0.3,0-0.5c0-0.2,0-0.5-0.1-0.7c0-0.2-0.1-0.3-0.1-0.5c0-0.1,0-0.1,0-0.2c0-0.1-0.1-0.2-0.1-0.3
		l-0.1-0.1l-29-70.5l0,0l-0.1-0.2c0-0.1-0.1-0.2-0.1-0.3c-0.1-0.1-0.1-0.3-0.2-0.4c-0.1-0.2-0.2-0.3-0.4-0.5c-0.4-0.5-1-0.9-1.6-1.2
		L297.5,57c-1.9-0.9-4.2-0.4-5.5,1.2c-0.4,0.2-0.7,0.5-1,0.8l-47.6,55.2c-2.4,0.5-4,2.9-3.5,5.3l15.5,75v0c-0.2,2,1,3.9,2.9,4.6
		l91.8,35.4c0.5,0.2,1.1,0.3,1.6,0.3c1.7,0,3.3-1,4.1-2.5c0.6-0.3,1.1-0.7,1.5-1.2l47.3-58.1C405.4,171.9,405.7,170.8,405.6,169.6
		L405.6,169.6z M368.5,101.6l23.9,58.2l-80.1-39.7l-11.4-51.5L368.5,101.6z M249.4,121l42.9-49.7l11.3,51l-41.3,60.9L249.4,121z
		 M350.6,225l-84-32.3l43.3-63.8l84.7,41.9L350.6,225z"/>
	<circle cx="402.6" cy="274.8" r="8.9"/>
	<circle cx="459.2" cy="310.5" r="8.9"/>
	<circle cx="442.4" cy="339.8" r="8.9"/>
	<circle cx="423.6" cy="371.3" r="8.9"/>
	<circle cx="346" cy="310.5" r="8.9"/>
	<circle cx="379.5" cy="365" r="8.9"/>
	<circle cx="316.1" cy="150.6" r="8.9"/>
	<circle cx="368.5" cy="176.8" r="8.9"/>
	<circle cx="293" cy="187.3" r="8.9"/>
	<circle cx="345.4" cy="208.3" r="8.9"/>
	<circle cx="342.3" cy="111.8" r="8.9"/>
	<circle cx="263.7" cy="124.4" r="8.9"/>
	<circle cx="290.9" cy="119.2" r="8.9"/>
	<path class="st5" d="M438,73.7c-0.1,0.6-0.7,1.1-1.4,1.1h-10.8c-7.8,0-14.2,6.3-14.2,14.2v26.9c0,0.7-0.4,1.3-1.1,1.4
		c-0.8,0.1-1.5-0.5-1.5-1.3V90.2c0-8.5-6.9-15.4-15.4-15.4h-8.2c-0.7,0-1.3-0.4-1.4-1.1c-0.1-0.8,0.5-1.5,1.3-1.5h7.4
		c9,0,16.4-7.3,16.4-16.4V34.4c0-0.7,0.4-1.3,1.1-1.4c0.8-0.1,1.5,0.5,1.5,1.3v23.5c0,8,6.5,14.4,14.4,14.4h10.6
		C437.5,72.2,438.1,72.9,438,73.7z"/>
	<path class="st5" d="M300,343.7c-0.1,0.6-0.7,1.1-1.4,1.1h-10.8c-7.8,0-14.2,6.3-14.2,14.2v26.9c0,0.7-0.4,1.3-1.1,1.4
		c-0.8,0.1-1.5-0.5-1.5-1.3v-25.7c0-8.5-6.9-15.4-15.4-15.4h-8.2c-0.7,0-1.3-0.4-1.4-1.1c-0.1-0.8,0.5-1.5,1.3-1.5h7.4
		c9,0,16.4-7.3,16.4-16.4v-21.5c0-0.7,0.4-1.3,1.1-1.4c0.8-0.1,1.5,0.5,1.5,1.3v23.5c0,8,6.5,14.4,14.4,14.4h10.6
		C299.5,342.2,300.1,342.9,300,343.7z"/>
	<path class="st5" d="M168,96.7c-0.1,0.6-0.7,1.1-1.4,1.1h-10.8c-7.8,0-14.2,6.3-14.2,14.2l0,26.9c0,0.7-0.4,1.3-1.1,1.4
		c-0.8,0.1-1.5-0.5-1.5-1.3v-25.7c0-8.5-6.9-15.4-15.4-15.4h-8.2c-0.7,0-1.3-0.4-1.4-1.1c-0.1-0.8,0.5-1.5,1.3-1.5h7.4
		c9,0,16.4-7.3,16.4-16.4l0-21.5c0-0.7,0.4-1.3,1.1-1.4c0.8-0.1,1.5,0.5,1.5,1.3v23.5c0,8,6.5,14.4,14.4,14.4h10.6
		C167.5,95.2,168.1,95.9,168,96.7z"/>
</g>
</svg>
