<?xml version="1.0" encoding="utf-8"?>
<!-- Generator: Adobe Illustrator 22.1.0, SVG Export Plug-In . SVG Version: 6.00 Build 0)  -->
<svg version="1.1" id="Layer_1" xmlns="http://www.w3.org/2000/svg" xmlns:xlink="http://www.w3.org/1999/xlink" x="0px" y="0px"
	 viewBox="0 0 481 99" style="enable-background:new 0 0 481 99;" xml:space="preserve">
<style type="text/css">
	.st0{fill:#333333;}
</style>
<g>
	<path class="st0" d="M152.4,4.6c-0.5,0.2-1.1,0.5-1.6,0.9c-1.1,0.8-1.7,1.8-1.8,2.8v18.3c0,6-1.8,10.7-5.3,14.4
		c-3.2,3.3-6.9,4.9-11.3,4.9c-4.7,0-8.7-1.4-11.9-4.2c-4-3.5-6-8.5-6-15.2V8.1c-0.2-1.2-0.8-2.2-1.7-2.9c-0.5-0.3-0.9-0.6-1.4-0.7
		h11.7c-0.6,0.2-1.1,0.5-1.7,0.9c-1.1,0.8-1.7,1.8-1.8,2.9l0,12.4l0,5c0,10,2.8,15.8,8.5,17.4l1.2,0.3c0.5,0.1,0.9,0.2,1.3,0.2
		l2,0.1c0.6,0,1.2-0.1,1.6-0.1l1.2-0.2c2.6-0.5,4.6-1.9,6-4.1c1.8-2.8,2.6-7.1,2.6-12.8V9.1c0-1.6-0.5-2.8-1.6-3.7
		c-0.5-0.4-1.1-0.7-1.6-0.8H152.4z"/>
	<path class="st0" d="M193.6,4.6c-0.6,0.2-1.1,0.5-1.7,0.9c-1.1,0.8-1.8,1.8-1.8,2.9v37.4l0,0v0l-30-31.1V42
		c0.1,1.1,0.7,2.1,1.8,2.9c0.6,0.4,1.1,0.7,1.7,0.9h-11.8c0.5-0.2,1.1-0.5,1.7-0.9c1.1-0.8,1.8-1.8,1.8-2.9V4.6l30,31.5V8.4
		c-0.1-1.1-0.7-2.1-1.8-2.9c-0.6-0.4-1.1-0.7-1.7-0.9H193.6z"/>
	<path class="st0" d="M228.9,4.6l-1.5,7.5c-0.1-0.8-0.3-1.5-0.7-2.2c-0.8-1.5-2-2.3-3.6-2.3h-7.8v0.5c0,7.8,0,14.9,0,21.3V42
		c0.1,1.1,0.7,2.1,1.8,2.9c0.6,0.4,1.1,0.7,1.7,0.9h-11.8c0.5-0.2,1.1-0.5,1.7-0.9c1.1-0.8,1.7-1.8,1.8-2.9V29.4
		c0-6.4,0-13.5,0-21.3l0-0.5h-7.8c-1.7,0-2.9,0.8-3.7,2.3c-0.4,0.7-0.6,1.5-0.6,2.2l-1.5-7.5l1.5,0.7h29.1L228.9,4.6z"/>
	<path class="st0" d="M240.4,42c0.1,1.1,0.7,2.1,1.8,2.9c0.6,0.4,1.1,0.7,1.7,0.9h-11.8c0.5-0.2,1.1-0.5,1.7-0.9
		c1.1-0.8,1.8-1.8,1.8-2.9V8.4c-0.1-1.1-0.7-2.1-1.8-2.9c-0.6-0.4-1.1-0.7-1.7-0.9h11.8c-0.5,0.2-1.1,0.5-1.7,0.9
		c-1.1,0.8-1.7,1.8-1.8,2.9V42z"/>
	<path class="st0" d="M279.3,4.6l-1.5,7.5c-0.1-0.8-0.3-1.5-0.7-2.2c-0.8-1.5-2-2.3-3.6-2.3h-7.8v0.5c0,7.8,0,14.9,0,21.3V42
		c0.1,1.1,0.7,2.1,1.8,2.9c0.6,0.4,1.1,0.7,1.7,0.9h-11.8c0.5-0.2,1.1-0.5,1.7-0.9c1.1-0.8,1.7-1.8,1.8-2.9V29.4
		c0-6.4,0-13.5,0-21.3l0-0.5H253c-1.7,0-2.9,0.8-3.7,2.3c-0.4,0.7-0.6,1.5-0.6,2.2l-1.5-7.5l1.5,0.7h29.1L279.3,4.6z"/>
	<path class="st0" d="M299,44.1c1.9,0,3.8-0.9,5.5-2.8c0.8-0.9,1.5-1.8,2-2.8l-0.8,7.2h-22.4c0.6-0.2,1.2-0.5,1.8-1
		c1.2-0.9,1.8-2,1.8-3.2c0-1.9,0-13.4-0.1-34.2c-0.6-1.3-2-2.2-4.2-2.9h13.4c-2,0.6-3.4,1.5-4.2,2.7v33.2c0.4,0.6,1.1,1.2,1.9,1.8
		C295.3,43.5,297.1,44.1,299,44.1z M291.6,7.4c0,20.9-0.1,32.3-0.1,34.2l0.1-34.4C291.7,7.4,291.6,7.4,291.6,7.4z"/>
	<path class="st0" d="M329.5,5.3l1.5-0.7l-1.5,7.5c-0.1-0.8-0.3-1.5-0.7-2.2c-0.8-1.5-2-2.3-3.6-2.3h-7.8V23h8.6
		c1.7,0,3-0.5,4.1-1.4l-1,8.1c0-0.7-0.3-1.5-0.7-2.2c-0.9-1.4-2.4-2.2-4.4-2.2h-6.6v15.3c0.4,0.6,1.1,1.2,1.9,1.7
		c1.7,1.2,3.4,1.7,5.3,1.7c1.9,0,3.7-0.9,5.4-2.7c0.8-0.9,1.5-1.8,1.9-2.7l-0.8,7.1h-22c0.6-0.2,1.2-0.5,1.8-0.9
		c1.2-0.9,1.8-1.9,1.8-3.1c0-1.9,0-13.1-0.1-33.6c-0.6-1.2-2-2.2-4.2-2.8H329.5z"/>
	<path class="st0" d="M351.9,4.6c9.3,0,15.6,3.3,19,9.8c1.7,3.3,2.5,6.5,2.3,9.8c0,7.2-2.2,12.7-6.7,16.5c-4,3.4-9.3,5.1-15.8,5.1
		h-16.4l2.1-0.7c1.2-0.6,1.9-1.2,2-1.9V7.6c0.1-0.3,0-0.7-0.3-1c-0.6-0.8-1.8-1.4-3.8-1.9H351.9z M349.2,43.4
		c4.8,0,9.1-1.8,13.1-5.4c4.3-3.9,6.4-8.4,6.4-13.7c0-5.5-1.6-9.8-4.7-13c-3.1-3.1-7.3-4.7-12.6-4.7c-3.4,0-6.2,0.9-8.4,2.7v32.2
		C344.5,42.9,346.5,43.5,349.2,43.4z"/>
	<path class="st0" d="M135.2,78.2c0.1-0.3,0-0.7-0.3-1.1c-0.6-0.8-1.9-1.5-3.9-2h13.2c-2,0.5-3.3,1.2-3.9,2
		c-0.3,0.4-0.4,0.8-0.3,1.1v14.2c-0.6,0.5-1.6,0.9-2.9,1.4c-2.7,1-5.9,1.4-9.7,1.4c-6.8,0-12.2-1.6-16.2-4.9
		c-4.6-3.7-6.9-9.2-6.9-16.5c-0.2-3.3,0.6-6.6,2.4-9.9c3.5-6.6,9.9-9.9,19.4-9.9c7.6,0.6,12.4,1.2,14.3,1.7l-1.4,9.1
		c-0.3-1.5-1-3-2.2-4.5c-2.3-3-5.8-4.5-10.3-4.5c-5.5,0-9.8,1.6-12.9,4.8c-3.2,3.2-4.8,7.6-4.8,13.3c0,5.4,2.2,10,6.6,13.7
		c4,3.5,8.5,5.2,13.4,5.2c2.7,0.1,4.8-0.5,6.3-1.9V78.2z"/>
	<path class="st0" d="M168.4,54.1c4.8,0,9.2,1.9,13.2,5.8c4.5,4.3,6.7,9.5,6.7,15.6c0,6-2.3,10.9-6.9,14.8c-4,3.3-8.3,5-13,5
		c-5.1,0-9.7-1.5-13.7-4.4c-5.1-3.7-7.6-8.8-7.6-15.6c0-9.4,3.5-15.7,10.6-19.1C161.3,54.6,164.8,53.8,168.4,54.1z M152.2,74.7
		c0,5.5,1.4,9.9,4.1,13.1c1.9,2.3,4.5,3.9,7.5,4.8V56.8c-3.1,0.9-5.6,2.5-7.5,4.7C153.6,64.7,152.2,69.1,152.2,74.7z M166.5,56.3
		c-0.5,0.1-0.9,0.1-1.3,0.2v36.3c0.5,0.1,0.9,0.2,1.3,0.2V56.3z M168.5,93.2c0.5,0,1.1-0.1,1.6-0.1V56.6c-0.6-0.1-1.1-0.2-1.6-0.3
		V93.2z M171.4,92.9c3.1-0.7,5.6-2.1,7.6-4.2c2.8-3.1,4.2-7.5,4.2-13.2c0-5.7-1.4-10.2-4.2-13.6c-2-2.4-4.5-4-7.6-5V92.9z"/>
	<path class="st0" d="M217.1,54l-1.5,7.5c-0.1-0.8-0.3-1.5-0.7-2.2c-0.8-1.5-2-2.3-3.6-2.3h-7.8v0.5c0,7.8,0,14.9,0,21.3v12.6
		c0.1,1.1,0.7,2.1,1.8,2.9c0.6,0.4,1.1,0.7,1.7,0.9h-11.8c0.5-0.2,1.1-0.5,1.7-0.9c1.1-0.8,1.7-1.8,1.8-2.9V78.9
		c0-6.4,0-13.5,0-21.3l0-0.5h-7.8c-1.7,0-2.9,0.8-3.7,2.3c-0.4,0.7-0.6,1.5-0.6,2.2L185,54l1.5,0.7h29.1L217.1,54z"/>
	<path class="st0" d="M258.6,78.2c0.1-0.3,0-0.7-0.3-1.1c-0.6-0.8-1.9-1.5-3.9-2h13.2c-2,0.5-3.3,1.2-3.9,2
		c-0.3,0.4-0.4,0.8-0.3,1.1v14.2c-0.6,0.5-1.6,0.9-2.9,1.4c-2.7,1-5.9,1.4-9.7,1.4c-6.8,0-12.2-1.6-16.2-4.9
		c-4.6-3.7-6.9-9.2-6.9-16.5c-0.2-3.3,0.6-6.6,2.4-9.9c3.5-6.6,9.9-9.9,19.4-9.9c7.6,0.6,12.4,1.2,14.3,1.7l-1.4,9.1
		c-0.3-1.5-1-3-2.2-4.5c-2.3-3-5.8-4.5-10.3-4.5c-5.5,0-9.8,1.6-12.9,4.8c-3.2,3.2-4.8,7.6-4.8,13.3c0,5.4,2.2,10,6.6,13.7
		c4,3.5,8.5,5.2,13.4,5.2c2.7,0.1,4.8-0.5,6.3-1.9V78.2z"/>
	<path class="st0" d="M288.4,95.3c0.6-0.9,1.7-1.6,3.2-2l-5.3-13.7h-11.4l-4.3,13c0,0.8,0.5,1.5,1.6,2c0.5,0.3,1,0.5,1.6,0.6h-12.1
		c1.7-0.2,3.1-0.9,4.2-2.1c0.5-0.6,0.9-1.2,1-1.7L281,54c9.6,23.3,14.8,35.9,15.8,37.7c0.6,1.2,1.5,2.1,2.9,2.8
		c0.7,0.3,1.3,0.6,1.8,0.7H288.4z M285.7,77.1l-5-13.9l-5.1,13.9L285.7,77.1z"/>
	<path class="st0" d="M328.2,94.5L328.2,94.5L328.2,94.5l-0.2-0.2l-13.6-25.5l-2.8,20.9V91c0.1,1.1,0.7,2.1,1.8,2.9
		c0.6,0.4,1.1,0.7,1.7,0.9h-11.7c0.5-0.2,1.1-0.5,1.7-0.9c1.1-0.8,1.7-1.8,1.8-2.9l4.7-37l16.6,33.5l17.1-33l6.1,37
		c0.1,1.1,0.7,2.1,1.8,2.9c0.6,0.4,1.1,0.7,1.7,0.9h-11.7c0.5-0.2,1.1-0.5,1.7-0.9c1.1-0.8,1.7-1.8,1.8-2.9v-1.3l-4.7-20.4
		L328.2,94.5L328.2,94.5z"/>
	<path class="st0" d="M378.3,54.8l1.5-0.7l-1.5,7.5c-0.1-0.8-0.3-1.5-0.7-2.2c-0.8-1.5-2-2.3-3.6-2.3h-7.8v15.4h8.6
		c1.7,0,3-0.5,4.1-1.4l-1,8.1c0-0.7-0.3-1.5-0.7-2.2c-0.9-1.4-2.4-2.2-4.4-2.2h-6.6v15.3c0.4,0.6,1.1,1.2,1.9,1.7
		c1.7,1.2,3.4,1.7,5.3,1.7c1.9,0,3.7-0.9,5.4-2.7c0.8-0.9,1.5-1.8,1.9-2.7l-0.8,7.1h-22c0.6-0.2,1.2-0.5,1.8-0.9
		c1.2-0.9,1.8-1.9,1.8-3.1c0-1.9,0-13.1-0.1-33.6c-0.6-1.2-2-2.2-4.2-2.8H378.3z"/>
</g>
<path class="st0" d="M477.9,5c-0.3-0.3-0.8-0.5-1.2-0.4L463,6.8c-0.3,0-0.6,0.2-0.8,0.4l-51.7,54.5l-8.7-8.7c-0.5-0.5-1.5-0.5-2,0
	l-4.7,4.7c-0.5,0.5-0.5,1.4,0,2l9.2,9.2l-16,13.2c-0.5,0.4-0.6,1-0.4,1.6l2.8,7.4c0.1,0.4,0.4,0.6,0.8,0.8l8,3.5
	c0.2,0.1,0.4,0.1,0.5,0.1c0.4,0,0.8-0.2,1.1-0.5l13.2-15.9l8.9,8.9c0.3,0.3,0.6,0.4,1,0.4c0.3,0,0.7-0.1,1-0.4l4.7-4.7
	c0.3-0.3,0.4-0.6,0.4-1s-0.1-0.7-0.4-1l-9.5-9.5L475.1,20c0.2-0.2,0.3-0.4,0.4-0.7l2.8-13C478.4,5.8,478.2,5.4,477.9,5z M399.7,92.2
	l-6.5-2.8l-2.2-5.9l3.8-3.1l5.3,11.5L399.7,92.2z M400.6,91.2l-5.2-11.3l4.2-3.4l4.7,10.4L400.6,91.2z M408.6,81.6l-3.9,4.6
	L400.1,76l4.3-3.6L408.6,81.6L408.6,81.6z M409.1,81l-4.1-9l1.4-1.2l6.1,6.1L409.1,81z M427,82.1l-2.7,2.7l-16.9-16.9l-9.3-9.3
	l2.7-2.7L427,82.1z M472.8,18.3l-54.2,51.1l-6-6l51.2-54l10.5-1.7l-47.1,46.7c-0.1,0.1-0.1,0.4,0,0.5c0.1,0.1,0.2,0.1,0.3,0.1
	c0.1,0,0.2,0,0.3-0.1L475,8.3L472.8,18.3z"/>
<path class="st0" d="M94.8,81.9L78.9,68.6l8.9-8.9c0.3-0.3,0.4-0.6,0.4-1c0-0.4-0.1-0.7-0.4-1l-4.7-4.7c-0.3-0.3-0.6-0.4-1-0.4
	s-0.7,0.1-1,0.4l-9.5,9.5L20,8c-0.2-0.2-0.4-0.3-0.7-0.4l-13-2.8C5.8,4.7,5.4,4.8,5,5.1C4.7,5.5,4.5,5.9,4.6,6.4L6.8,20
	c0,0.3,0.2,0.6,0.4,0.8l54.5,51.7L53,81.2c-0.5,0.5-0.5,1.4,0,2l4.7,4.7c0.5,0.5,1.4,0.5,2,0l9.2-9.2L82,94.6c0.4,0.5,1,0.6,1.6,0.4
	l7.4-2.8c0.3-0.1,0.6-0.4,0.8-0.8l3.5-8c0.1-0.2,0.1-0.4,0.1-0.5C95.3,82.5,95.1,82.1,94.8,81.9z M9.4,19.1L7.8,8.6l46.7,47.1
	c0.1,0.1,0.4,0.1,0.5,0c0.1-0.1,0.1-0.2,0.1-0.3c0-0.1,0-0.2-0.1-0.2L8.3,8.1l10,2.2l51.1,54.2l-6,6L9.4,19.1z M67.9,75.6l-9.3,9.3
	L56,82.2l26.1-26.1l2.7,2.7L67.9,75.6z M70.8,76.7l6.1-6.1L81,74l-9,4.1L70.8,76.7z M72.4,78.7l9.2-4.2l4.6,3.8L76,83L72.4,78.7z
	 M76.5,83.6l10.4-4.7l4.4,3.7l-11.3,5.2L76.5,83.6z M89.4,89.9l-5.9,2.2l-3.2-3.8L91.8,83l0.4,0.3L89.4,89.9z"/>
</svg>
