<?xml version="1.0" encoding="utf-8"?>
<!-- Generator: Adobe Illustrator 22.1.0, SVG Export Plug-In . SVG Version: 6.00 Build 0)  -->
<svg version="1.1" id="Layer_1" xmlns="http://www.w3.org/2000/svg" xmlns:xlink="http://www.w3.org/1999/xlink" x="0px" y="0px"
	 viewBox="0 0 100 100" style="enable-background:new 0 0 100 100;" xml:space="preserve">
<path d="M97.8,39.1L91.7,44c0.3,2,0.4,4,0.4,6c0,24.2-20.4,43.6-45,41.9C26.4,90.5,9.6,73.7,8.2,53C6.5,28.4,25.9,8,50.1,8
	c1.6,0,3.2,0.1,4.7,0.3c1.1,0.1,1.9,1.1,1.9,2.1c0,0.3,0,0.5-0.2,0.8c-0.6,1.5-2.1,2.4-3.7,2.3c-3.3-0.2-6.7-0.1-10.2,0.6
	c-15.5,3.1-27.4,16.2-29.1,32c-2.4,23,16.6,42.3,39.5,40.5c17.2-1.4,31.3-14.9,33.3-32.1c0.3-2.2,0.3-4.3,0.2-6.4l-5.6,4.5
	c-0.5,0.5-1.2,0.7-1.9,0.7c-0.4,0-0.7-0.1-1.1-0.2c-1-0.4-1.7-1.3-1.9-2.4l-3.3-21.2c-0.2-1.1,0.2-2.2,1.1-2.8c0.8-0.7,2-0.9,3-0.5
	L97,33.9c1,0.4,1.7,1.3,1.9,2.4C99,37.3,98.6,38.4,97.8,39.1z"/>
</svg>
