<?xml version="1.0" encoding="utf-8"?>
<!-- Generator: Adobe Illustrator 22.1.0, SVG Export Plug-In . SVG Version: 6.00 Build 0)  -->
<svg version="1.1" id="Layer_2_1_" xmlns="http://www.w3.org/2000/svg" xmlns:xlink="http://www.w3.org/1999/xlink" x="0px" y="0px"
	 viewBox="0 0 540 135" style="enable-background:new 0 0 540 135;" xml:space="preserve">
<style type="text/css">
	.st0{fill:#C15D7A;}
	.st1{fill:#E02B4A;}
	.st2{fill:#BA0035;}
	.st3{opacity:0.75;}
	.st4{enable-background:new    ;}
	.st5{fill:#333333;}
	.st6{fill:#FFFFFF;}
</style>
<g>
	<polygon class="st0" points="113.5,56.5 5.5,56.5 19.9,127.1 99.1,127.1 	"/>
</g>
<g>
	<polygon class="st0" points="534,58 426,58 440.4,127.1 519.6,127.1 	"/>
</g>
<g>
	<polygon class="st1" points="499.4,9 38.6,9 53,95.4 485,95.4 	"/>
</g>
<polyline class="st2" points="485,95.4 428.9,95.4 440.4,127.1 "/>
<polyline class="st2" points="54.5,95.4 110.6,95.4 99.1,127.1 "/>
<g>
	<g class="st3">
		<g class="st4">
			<path class="st5" d="M203.7,41.6c1.8,1.8,2.7,4.1,2.7,7.1c0,3-0.9,5.3-2.7,7.1c-1.8,1.7-4.5,2.6-8,2.6h-6.2v12.2h-4V38.9h10.2
				C199.2,38.9,201.9,39.8,203.7,41.6z M195.7,54.9c2.2,0,3.8-0.6,5-1.7c1.1-1.1,1.7-2.6,1.7-4.6s-0.6-3.5-1.7-4.6
				c-1.1-1.2-2.8-1.7-5-1.7h-6.2v12.6H195.7z"/>
			<path class="st5" d="M213.5,36.3h4v34.3h-4V36.3z"/>
			<path class="st5" d="M242.5,55c0-2.2-0.5-3.7-1.4-4.7c-0.9-0.9-2.2-1.4-4-1.4c-1.7,0-3.1,0.3-4.2,1c-1.1,0.7-1.6,1.8-1.6,3.3
				h-4.4c0-3.7,2-6,5.9-6.9c1.2-0.3,2.5-0.4,3.9-0.4c3,0,5.3,0.8,7,2.3c1.7,1.5,2.5,3.8,2.5,6.9v15.5H243l-0.4-4
				c-1.5,3.1-4.1,4.6-8,4.6c-2.6,0-4.7-0.7-6.2-2.2c-1.6-1.4-2.3-3.2-2.3-5.4s0.9-3.8,2.6-5c1.7-1.2,3.9-1.8,6.5-1.8
				s5.1,0.4,7.4,1.3V55z M242.5,60.6c-2.4-0.7-4.5-1-6.2-1c-1.8,0-3.2,0.3-4.3,1c-1.1,0.6-1.7,1.6-1.7,3c0,3,1.7,4.5,5.1,4.5
				c1.9,0,3.6-0.7,5-2.1C241.8,64.6,242.5,62.8,242.5,60.6z"/>
			<path class="st5" d="M251,77.6c1.6,1.3,3.4,1.9,5.2,1.9c1.3,0,2.5-0.7,3.5-2c0.7-1,1.3-2.5,1.9-4.4l0.7-2.5l-9.9-24.1h4.4
				l7.3,19.2l5.7-19.2h4l-9,28.9c-0.8,2.5-1.8,4.3-3,5.6c-1.3,1.3-2.9,2-4.8,2c-1.9,0-3.9-0.6-6-1.8V77.6z"/>
			<path class="st5" d="M288.5,67.9c3.3,0,5.2-1.5,5.7-4.4h4.1c-0.4,2.4-1.4,4.3-3.2,5.6c-1.8,1.3-4,2-6.6,2c-3.2,0-5.8-1.2-7.9-3.5
				c-2-2.3-3-5.4-3-9.2s1-6.9,3-9.2c2-2.3,4.7-3.4,8.1-3.4c3.4,0,5.9,1.3,7.6,3.9c1.7,2.6,2.2,5.8,1.7,9.6h-16.5
				c0,2.5,0.6,4.5,1.8,6.1C284.7,67.1,286.4,67.9,288.5,67.9z M291.5,49.7c-0.8-0.4-1.7-0.6-2.8-0.6c-2,0-3.7,0.7-4.9,2.1
				c-1.2,1.4-1.9,3.1-2.1,5.2h12.8C294.5,53,293.5,50.8,291.5,49.7z"/>
			<path class="st5" d="M316,49.9c-3.8,0-5.8,3-5.9,9v11.7h-4V46.5h4v4.6c1.2-3.4,3.3-5,6.4-5c1,0,1.9,0.2,2.8,0.5l-0.2,3.9
				C318.1,50.1,317,49.9,316,49.9z"/>
			<path class="st5" d="M339.5,66.9h18.4v3.7h-22.4v-4.7c0-3.7,1.4-6.5,4.2-8.2c0.9-0.6,1.9-1.1,3-1.5l6.2-2.5
				c3.2-1.3,4.8-3.4,4.8-6.3c0-1.6-0.6-2.9-1.7-4s-2.7-1.5-4.7-1.5c-2,0-3.6,0.4-4.9,1.3c-1.3,0.8-2,2.1-2.2,3.8H336
				c0.2-2.8,1.3-4.9,3.3-6.3c2-1.5,4.7-2.2,7.9-2.2c3.2,0,5.8,0.9,7.8,2.6c2,1.7,3,3.9,3,6.5s-0.7,4.6-2,6.1
				c-1.3,1.5-3.1,2.7-5.5,3.6l-6.4,2.6c-1.6,0.7-2.8,1.4-3.6,2.3c-0.8,0.9-1.2,2-1.2,3.4V66.9z"/>
		</g>
	</g>
	<g>
		<g class="st4">
			<path class="st6" d="M202.7,39.6c1.8,1.8,2.7,4.1,2.7,7.1c0,3-0.9,5.3-2.7,7.1c-1.8,1.7-4.5,2.6-8,2.6h-6.2v12.2h-4V36.9h10.2
				C198.2,36.9,200.9,37.8,202.7,39.6z M194.7,52.9c2.2,0,3.8-0.6,5-1.7c1.1-1.1,1.7-2.6,1.7-4.6s-0.6-3.5-1.7-4.6
				c-1.1-1.2-2.8-1.7-5-1.7h-6.2v12.6H194.7z"/>
			<path class="st6" d="M212.5,34.3h4v34.3h-4V34.3z"/>
			<path class="st6" d="M241.5,53c0-2.2-0.5-3.7-1.4-4.7c-0.9-0.9-2.2-1.4-4-1.4c-1.7,0-3.1,0.3-4.2,1c-1.1,0.7-1.6,1.8-1.6,3.3
				h-4.4c0-3.7,2-6,5.9-6.9c1.2-0.3,2.5-0.4,3.9-0.4c3,0,5.3,0.8,7,2.3c1.7,1.5,2.5,3.8,2.5,6.9v15.5H242l-0.4-4
				c-1.5,3.1-4.1,4.6-8,4.6c-2.6,0-4.7-0.7-6.2-2.2c-1.6-1.4-2.3-3.2-2.3-5.4s0.9-3.8,2.6-5c1.7-1.2,3.9-1.8,6.5-1.8
				s5.1,0.4,7.4,1.3V53z M241.5,58.6c-2.4-0.7-4.5-1-6.2-1c-1.8,0-3.2,0.3-4.3,1c-1.1,0.6-1.7,1.6-1.7,3c0,3,1.7,4.5,5.1,4.5
				c1.9,0,3.6-0.7,5-2.1C240.8,62.6,241.5,60.8,241.5,58.6z"/>
			<path class="st6" d="M250,75.6c1.6,1.3,3.4,1.9,5.2,1.9c1.3,0,2.5-0.7,3.5-2c0.7-1,1.3-2.5,1.9-4.4l0.7-2.5l-9.9-24.1h4.4
				l7.3,19.2l5.7-19.2h4l-9,28.9c-0.8,2.5-1.8,4.3-3,5.6c-1.3,1.3-2.9,2-4.8,2c-1.9,0-3.9-0.6-6-1.8V75.6z"/>
			<path class="st6" d="M287.5,65.9c3.3,0,5.2-1.5,5.7-4.4h4.1c-0.4,2.4-1.4,4.3-3.2,5.6c-1.8,1.3-4,2-6.6,2c-3.2,0-5.8-1.2-7.9-3.5
				c-2-2.3-3-5.4-3-9.2s1-6.9,3-9.2c2-2.3,4.7-3.4,8.1-3.4c3.4,0,5.9,1.3,7.6,3.9c1.7,2.6,2.2,5.8,1.7,9.6h-16.5
				c0,2.5,0.6,4.5,1.8,6.1C283.7,65.1,285.4,65.9,287.5,65.9z M290.5,47.7c-0.8-0.4-1.7-0.6-2.8-0.6c-2,0-3.7,0.7-4.9,2.1
				c-1.2,1.4-1.9,3.1-2.1,5.2h12.8C293.5,51,292.5,48.8,290.5,47.7z"/>
			<path class="st6" d="M315,47.9c-3.8,0-5.8,3-5.9,9v11.7h-4V44.5h4v4.6c1.2-3.4,3.3-5,6.4-5c1,0,1.9,0.2,2.8,0.5l-0.2,3.9
				C317.1,48.1,316,47.9,315,47.9z"/>
			<path class="st6" d="M338.5,64.9h18.4v3.7h-22.4v-4.7c0-3.7,1.4-6.5,4.2-8.2c0.9-0.6,1.9-1.1,3-1.5l6.2-2.5
				c3.2-1.3,4.8-3.4,4.8-6.3c0-1.6-0.6-2.9-1.7-4s-2.7-1.5-4.7-1.5c-2,0-3.6,0.4-4.9,1.3c-1.3,0.8-2,2.1-2.2,3.8H335
				c0.2-2.8,1.3-4.9,3.3-6.3c2-1.5,4.7-2.2,7.9-2.2c3.2,0,5.8,0.9,7.8,2.6c2,1.7,3,3.9,3,6.5s-0.7,4.6-2,6.1
				c-1.3,1.5-3.1,2.7-5.5,3.6l-6.4,2.6c-1.6,0.7-2.8,1.4-3.6,2.3c-0.8,0.9-1.2,2-1.2,3.4V64.9z"/>
		</g>
	</g>
</g>
</svg>
