<?xml version="1.0" encoding="utf-8"?>
<!-- Generator: Adobe Illustrator 22.1.0, SVG Export Plug-In . SVG Version: 6.00 Build 0)  -->
<svg version="1.1" id="Layer_1" xmlns="http://www.w3.org/2000/svg" xmlns:xlink="http://www.w3.org/1999/xlink" x="0px" y="0px"
	 viewBox="0 0 540 135" style="enable-background:new 0 0 540 135;" xml:space="preserve">
<style type="text/css">
	.st0{fill:#2A96BC;}
	.st1{fill:#29ABE2;}
	.st2{fill:#0071BC;}
	.st3{opacity:0.75;}
	.st4{fill:#333333;}
	.st5{fill:#FFFFFF;}
</style>
<g>
	<polygon class="st0" points="113.2,56.3 5,56.3 19.4,127 98.8,127 	"/>
</g>
<g>
	<polygon class="st0" points="534.6,57.7 426.3,57.7 440.8,127 520.1,127 	"/>
</g>
<g>
	<polygon class="st1" points="499.9,8.7 38.2,8.7 52.6,95.3 485.5,95.3 	"/>
</g>
<polyline class="st2" points="485.5,95.3 429.2,95.3 440.8,127 "/>
<polyline class="st2" points="54.1,95.3 110.3,95.3 98.8,127 "/>
<g>
	<g class="st3">
		<path class="st4" d="M209.9,41.3c1.8,1.8,2.8,4.1,2.8,7.1c0,3-0.9,5.4-2.8,7.1c-1.8,1.7-4.5,2.6-8,2.6h-6.3v12.3h-4V38.6h10.2
			C205.4,38.6,208,39.5,209.9,41.3z M201.9,54.7c2.2,0,3.8-0.6,5-1.7c1.1-1.1,1.7-2.6,1.7-4.6c0-1.9-0.6-3.5-1.7-4.6
			c-1.1-1.2-2.8-1.7-5-1.7h-6.3v12.6H201.9z"/>
		<path class="st4" d="M219.7,36h4v34.4h-4V36z"/>
		<path class="st4" d="M248.8,54.8c0-2.2-0.5-3.8-1.4-4.7c-0.9-0.9-2.2-1.4-4-1.4c-1.7,0-3.1,0.3-4.2,1c-1.1,0.7-1.6,1.8-1.6,3.3
			h-4.4c0-3.7,2-6,6-6.9c1.2-0.3,2.5-0.4,3.9-0.4c3,0,5.3,0.8,7,2.3c1.7,1.5,2.5,3.8,2.5,6.9v15.5h-3.4l-0.4-4
			c-1.5,3.1-4.2,4.6-8,4.6c-2.6,0-4.7-0.7-6.2-2.2c-1.6-1.4-2.3-3.2-2.3-5.4c0-2.2,0.9-3.8,2.6-5c1.7-1.2,3.9-1.8,6.5-1.8
			s5.1,0.4,7.4,1.3V54.8z M248.8,60.4c-2.4-0.7-4.5-1-6.3-1c-1.8,0-3.2,0.3-4.3,1c-1.1,0.6-1.7,1.6-1.7,3c0,3,1.7,4.5,5.1,4.5
			c2,0,3.6-0.7,5-2.1C248.1,64.4,248.8,62.6,248.8,60.4z"/>
		<path class="st4" d="M257.3,77.4c1.6,1.3,3.4,1.9,5.2,1.9c1.3,0,2.5-0.7,3.5-2c0.7-1,1.3-2.5,1.9-4.4l0.7-2.5l-9.9-24.1h4.4
			l7.3,19.2l5.7-19.2h4l-9,28.9c-0.8,2.5-1.8,4.3-3.1,5.7c-1.3,1.3-2.9,2-4.8,2c-1.9,0-3.9-0.6-6-1.8V77.4z"/>
		<path class="st4" d="M294.9,67.7c3.3,0,5.2-1.5,5.7-4.4h4.1c-0.4,2.4-1.4,4.3-3.2,5.6c-1.8,1.3-4,2-6.6,2c-3.2,0-5.9-1.2-7.9-3.5
			c-2-2.3-3-5.4-3-9.2c0-3.8,1-6.9,3.1-9.2c2-2.3,4.7-3.4,8.1-3.4s5.9,1.3,7.6,3.9s2.2,5.8,1.7,9.6H288c0,2.5,0.6,4.5,1.8,6.1
			C291,66.9,292.7,67.7,294.9,67.7z M297.8,49.5c-0.8-0.4-1.7-0.6-2.8-0.6c-2.1,0-3.7,0.7-4.9,2.1c-1.2,1.4-1.9,3.1-2.1,5.2h12.9
			C300.9,52.8,299.9,50.6,297.8,49.5z"/>
		<path class="st4" d="M322.4,49.7c-3.8,0-5.8,3-5.9,9v11.8h-4V46.2h4v4.6c1.2-3.4,3.3-5,6.4-5c1,0,1.9,0.2,2.8,0.5l-0.2,3.9
			C324.5,49.8,323.4,49.7,322.4,49.7z"/>
		<path class="st4" d="M341.2,41.1c2.3-0.3,4.2-1.2,5.9-2.6h3.2v31.9h-3.9V43.3c-1.7,1.1-3.4,1.7-5.2,1.8V41.1z"/>
	</g>
	<g>
		<g>
			<path class="st5" d="M208.9,39.3c1.8,1.8,2.8,4.1,2.8,7.1c0,3-0.9,5.4-2.8,7.1c-1.8,1.7-4.5,2.6-8,2.6h-6.3v12.3h-4V36.6h10.2
				C204.4,36.6,207,37.5,208.9,39.3z M200.9,52.7c2.2,0,3.8-0.6,5-1.7c1.1-1.1,1.7-2.6,1.7-4.6c0-1.9-0.6-3.5-1.7-4.6
				c-1.1-1.2-2.8-1.7-5-1.7h-6.3v12.6H200.9z"/>
			<path class="st5" d="M218.7,34h4v34.4h-4V34z"/>
			<path class="st5" d="M247.8,52.8c0-2.2-0.5-3.8-1.4-4.7c-0.9-0.9-2.2-1.4-4-1.4c-1.7,0-3.1,0.3-4.2,1c-1.1,0.7-1.6,1.8-1.6,3.3
				h-4.4c0-3.7,2-6,6-6.9c1.2-0.3,2.5-0.4,3.9-0.4c3,0,5.3,0.8,7,2.3c1.7,1.5,2.5,3.8,2.5,6.9v15.5h-3.4l-0.4-4
				c-1.5,3.1-4.2,4.6-8,4.6c-2.6,0-4.7-0.7-6.2-2.2c-1.6-1.4-2.3-3.2-2.3-5.4c0-2.2,0.9-3.8,2.6-5c1.7-1.2,3.9-1.8,6.5-1.8
				s5.1,0.4,7.4,1.3V52.8z M247.8,58.4c-2.4-0.7-4.5-1-6.3-1c-1.8,0-3.2,0.3-4.3,1c-1.1,0.6-1.7,1.6-1.7,3c0,3,1.7,4.5,5.1,4.5
				c2,0,3.6-0.7,5-2.1C247.1,62.4,247.8,60.6,247.8,58.4z"/>
			<path class="st5" d="M256.3,75.4c1.6,1.3,3.4,1.9,5.2,1.9c1.3,0,2.5-0.7,3.5-2c0.7-1,1.3-2.5,1.9-4.4l0.7-2.5l-9.9-24.1h4.4
				l7.3,19.2l5.7-19.2h4l-9,28.9c-0.8,2.5-1.8,4.3-3.1,5.7c-1.3,1.3-2.9,2-4.8,2c-1.9,0-3.9-0.6-6-1.8V75.4z"/>
			<path class="st5" d="M293.9,65.7c3.3,0,5.2-1.5,5.7-4.4h4.1c-0.4,2.4-1.4,4.3-3.2,5.6c-1.8,1.3-4,2-6.6,2c-3.2,0-5.9-1.2-7.9-3.5
				c-2-2.3-3-5.4-3-9.2c0-3.8,1-6.9,3.1-9.2c2-2.3,4.7-3.4,8.1-3.4s5.9,1.3,7.6,3.9s2.2,5.8,1.7,9.6H287c0,2.5,0.6,4.5,1.8,6.1
				C290,64.9,291.7,65.7,293.9,65.7z M296.8,47.5c-0.8-0.4-1.7-0.6-2.8-0.6c-2.1,0-3.7,0.7-4.9,2.1c-1.2,1.4-1.9,3.1-2.1,5.2h12.9
				C299.9,50.8,298.9,48.6,296.8,47.5z"/>
			<path class="st5" d="M321.4,47.7c-3.8,0-5.8,3-5.9,9v11.8h-4V44.2h4v4.6c1.2-3.4,3.3-5,6.4-5c1,0,1.9,0.2,2.8,0.5l-0.2,3.9
				C323.5,47.8,322.4,47.7,321.4,47.7z"/>
			<path class="st5" d="M340.2,39.1c2.3-0.3,4.2-1.2,5.9-2.6h3.2v31.9h-3.9V41.3c-1.7,1.1-3.4,1.7-5.2,1.8V39.1z"/>
		</g>
	</g>
</g>
</svg>
